<?xml version="1.0" encoding="UTF-8"?>
<svg id="_Слой_1" data-name="Слой 1" xmlns="http://www.w3.org/2000/svg" xmlns:xlink="http://www.w3.org/1999/xlink" viewBox="0 0 941 845.94">
  <defs>
    <style>
      .cls-1 {
        fill: #e02a2b;
      }

      .cls-1, .cls-2 {
        stroke-width: 0px;
      }

      .cls-2 {
        fill: #d7001c;
      }

      .cls-3 {
        mask: url(#mask);
      }
    </style>
    <mask id="mask" x="-811.45" y="-1309.03" width="2467.3" height="2369.03" maskUnits="userSpaceOnUse">
      <g id="mask0_104_557" data-name="mask0 104 557">
        <path class="cls-1" d="m1654.78,212.47l1.03.02c.4-17.16-1.87-34.08-6.77-50.29-4.44-14.75-11.19-29.38-20.06-43.52-14.74-23.46-35.02-45.68-63.8-69.91-8-6.74-16.33-13.48-24.38-19.99-40.07-32.39-81.49-65.86-102.54-115.4-8.77-20.66-13.91-44.04-18.87-66.64-6.95-31.6-14.12-64.3-31.36-89.68-12.7-18.7-30.95-33.89-55.82-46.44-22.14-11.18-47.39-19.29-71.8-27.13-20.68-6.64-42.09-13.52-61.55-22.23-54.12-24.27-97.16-64.8-138.78-104.01l-273.43-257.61c-59.41-55.96-120.84-113.85-175.09-177.15-13.55-15.81-26.93-32.29-39.87-48.21-19.34-23.8-39.32-48.43-60.31-71.37-17.11-18.68-35.57-37.18-53.45-55.07-71.7-71.76-145.84-145.98-158.31-256.86l-1.03.12c3.01,26.72,9.5,51.9,19.87,76.98,9.23,22.3,21.32,43.99,36.96,66.29,29.02,41.38,66.01,78.4,101.78,114.21,17.86,17.87,36.33,36.37,53.41,55.02,20.97,22.91,40.95,47.52,60.27,71.32,12.94,15.93,26.31,32.41,39.87,48.23,54.28,63.35,115.73,121.25,175.16,177.22l273.43,257.61c41.68,39.27,84.79,79.87,139.07,104.21,19.5,8.74,40.94,15.63,61.64,22.28,48.68,15.63,99.01,31.82,127.09,73.18,17.12,25.21,24.29,57.81,31.2,89.32,4.97,22.66,10.12,46.09,18.93,66.82,21.15,49.78,62.67,83.36,102.84,115.81,8.05,6.51,16.38,13.24,24.38,19.97,39.59,33.32,92.03,86.47,90.26,162.9h.04Z"/>
        <path class="cls-1" d="m1643.43,224.37h1.04c-.03-16.85-2.68-33.51-7.91-49.51-4.75-14.55-11.78-29.04-20.89-43.06-15.08-23.19-35.65-45.39-64.74-69.86-7.56-6.37-15.42-12.74-23.01-18.92-40.76-33.11-82.9-67.34-104.24-117.84-7.26-17.17-11.86-35.57-15.77-52.91-1.11-4.92-2.19-9.92-3.25-14.76-6.85-31.64-13.95-64.35-31.1-89.87-12.84-19.08-31.4-34.56-56.75-47.34-22.56-11.37-48.3-19.59-73.17-27.53-20.2-6.45-41.1-13.12-60.15-21.44-3.46-1.52-6.97-3.12-10.43-4.8-50.32-24.39-92.67-62.94-130.02-96.95-17.49-15.92-33.07-30.14-47.64-43.52-41.51-38.09-75.09-69.59-105.65-99.09-4.61-4.44-9.19-8.9-13.64-13.24-16.76-16.35-33.58-32.96-49.83-49.02-6.81-6.72-13.61-13.45-20.44-20.17-11.48-11.32-23.09-22.73-34.52-33.91-5.83-5.7-11.65-11.38-17.5-17.09-48.48-47.32-98.62-96.26-144.66-147.93-4.2-4.7-8.33-9.42-12.33-14.02-12.61-14.55-25.13-29.61-37.23-44.19-20.7-24.93-42.1-50.68-64.6-74.53-17.9-18.96-37.22-37.66-55.91-55.73-6.22-6.02-12.64-12.22-18.92-18.36-67.4-65.79-129-132.96-142.33-230.7l-1.03.14c6.11,44.71,22.93,86.65,51.42,128.18,24.24,35.32,54,66.76,91.22,103.11,6.29,6.14,12.71,12.36,18.92,18.37,18.68,18.08,38.01,36.76,55.89,55.7,22.48,23.81,43.86,49.57,64.55,74.48,12.1,14.58,24.62,29.64,37.24,44.21,3.99,4.6,8.14,9.32,12.34,14.03,46.08,51.7,96.22,100.65,144.72,147.98,5.84,5.69,11.67,11.39,17.5,17.09,11.42,11.18,23.04,22.58,34.52,33.9,6.82,6.72,13.63,13.45,20.44,20.17,16.26,16.06,33.07,32.66,49.83,49.02,4.45,4.33,9.03,8.8,13.64,13.24,30.56,29.51,64.14,61,105.67,99.11,14.57,13.36,30.15,27.61,47.64,43.53,37.42,34.07,79.81,72.68,130.27,97.12,3.47,1.67,6.98,3.29,10.46,4.82,19.11,8.33,40.02,15.02,60.24,21.48,49.64,15.86,100.97,32.24,129.38,74.46,17.04,25.35,24.11,57.96,30.94,89.5,1.06,4.84,2.15,9.86,3.25,14.76,3.92,17.38,8.54,35.85,15.82,53.08,21.44,50.74,63.68,85.05,104.55,118.24,7.59,6.17,15.45,12.55,23.01,18.9,43.32,36.44,93.07,87.73,93.18,161.64h-.02Z"/>
        <path class="cls-1" d="m1632.07,236.26l1.04-.04c-.44-16.55-3.49-32.93-9.04-48.73-5.06-14.35-12.37-28.68-21.73-42.6-15.4-22.9-36.27-45.09-65.69-69.81-7.11-5.98-14.46-11.97-21.58-17.77-41.49-33.84-84.39-68.85-106.03-120.34-7.36-17.49-12.12-36.76-15.8-53.3-1.14-5.12-2.26-10.34-3.34-15.4-6.77-31.66-13.77-64.4-30.86-90.05-12.99-19.47-31.86-35.26-57.71-48.25-23-11.56-49.22-19.87-74.58-27.92-19.69-6.24-40.05-12.7-58.67-20.62-3.49-1.49-7.03-3.06-10.51-4.71-51.36-24.18-93.99-61.69-131.6-94.79-17.75-15.6-33.55-29.62-48.32-42.82-42.2-37.72-75.98-69.27-106.31-99.27-4.55-4.5-9.08-9.03-13.44-13.45-16.47-16.62-32.71-33.46-48.43-49.74-6.48-6.72-13.19-13.67-19.82-20.5-11.14-11.5-22.45-23.1-33.64-34.46-12.07-12.26-24.47-24.74-36.47-36.83-41.6-41.89-84.62-85.18-124.94-130.06-4.23-4.71-8.42-9.44-12.45-14.03-11.56-13.17-23.08-26.75-34.22-39.88-22.16-26.14-45.09-53.15-69.25-77.98-18.74-19.27-38.98-38.17-58.54-56.45-5.74-5.37-11.68-10.92-17.5-16.39-68.5-64.46-131.25-130.15-146.55-224.83l-1.02.17c15.35,95,78.23,160.83,146.86,225.4,5.82,5.48,11.75,11.03,17.5,16.4,19.56,18.26,39.77,37.15,58.5,56.4,24.12,24.8,47.03,51.8,69.19,77.92,11.14,13.13,22.66,26.72,34.24,39.89,4.04,4.61,8.24,9.32,12.47,14.04,40.34,44.9,83.36,88.21,124.98,130.09,12,12.08,24.4,24.57,36.47,36.81,11.18,11.37,22.51,22.96,33.64,34.46,6.62,6.85,13.34,13.78,19.82,20.5,15.72,16.29,31.96,33.14,48.43,49.76,4.39,4.43,8.91,8.96,13.46,13.46,30.35,30.02,64.15,61.57,106.35,99.32,14.77,13.2,30.58,27.21,48.33,42.82,37.67,33.14,80.35,70.71,131.85,94.95,3.5,1.64,7.04,3.23,10.55,4.72,18.67,7.94,39.05,14.4,58.76,20.65,50.63,16.05,102.99,32.66,131.73,75.75,16.96,25.48,23.95,58.12,30.7,89.69,1.08,5.06,2.19,10.28,3.34,15.4,3.69,16.59,8.48,35.9,15.85,53.48,21.74,51.73,64.76,86.8,106.34,120.75,7.1,5.8,14.45,11.8,21.56,17.77,43.73,36.74,94.16,88.15,96.09,160.37v.05Z"/>
        <path class="cls-1" d="m1620.71,248.17l1.04-.05c-1.67-31.3-12.36-60.77-32.73-90.1-15.71-22.62-36.89-44.78-66.63-69.74-6.61-5.56-13.44-11.14-20.04-16.56-42.25-34.62-85.96-70.41-107.91-122.91-7.43-17.79-12.17-37.11-15.84-53.68-1.19-5.33-2.33-10.76-3.44-16.02-6.7-31.69-13.62-64.47-30.63-90.24-13.14-19.87-32.35-35.96-58.69-49.18-23.43-11.75-50.17-20.16-76.02-28.31-19.16-6.03-38.97-12.26-57.14-19.79-3.52-1.45-7.09-3.02-10.59-4.61-.1-.05-.19-.08-.29-.13-48.37-22.18-88.81-55.02-132.89-92.48-18.02-15.31-34.04-29.07-49.02-42.11-42.88-37.34-76.88-68.95-106.99-99.47-4.52-4.58-8.97-9.17-13.26-13.66-16.16-16.89-31.87-33.99-47.04-50.5-6.26-6.82-12.75-13.88-19.17-20.82-10.78-11.67-21.8-23.45-32.76-35.01-18.64-19.65-38.06-39.71-56.85-59.11-34.4-35.52-69.95-72.23-103.83-109.63-4.29-4.74-8.53-9.47-12.59-14.03-10.38-11.68-20.76-23.67-30.81-35.27-23.77-27.47-48.37-55.86-74.31-81.72-19.65-19.59-40.83-38.69-61.32-57.16-5.23-4.72-10.64-9.58-15.92-14.39-69.61-63.11-133.53-127.34-150.76-218.95l-1.03.2c7.97,42.32,26.41,82.02,56.39,121.38,27.89,36.61,63.51,69.85,94.7,98.13,5.29,4.8,10.69,9.67,15.92,14.4,20.48,18.47,41.65,37.57,61.28,57.14,25.92,25.85,50.49,54.23,74.25,81.67,10.04,11.6,20.43,23.6,30.82,35.28,4.07,4.58,8.3,9.3,12.6,14.05,33.88,37.41,69.45,74.14,103.85,109.66,18.78,19.4,38.2,39.46,56.84,59.1,10.96,11.57,21.99,23.34,32.74,35,6.42,6.94,12.89,13.99,19.17,20.82,15.18,16.53,30.89,33.63,47.07,50.53,4.29,4.49,8.76,9.09,13.26,13.67,30.13,30.54,64.14,62.15,107.05,99.52,14.96,13.04,31.01,26.82,49.02,42.11,44.14,37.52,84.65,70.4,133.13,92.64.1.05.19.08.29.13,3.53,1.6,7.1,3.17,10.63,4.63,18.22,7.53,38.05,13.77,57.24,19.82,51.65,16.26,105.05,33.07,134.14,77.06,16.9,25.6,23.79,58.29,30.47,89.89,1.1,5.26,2.26,10.7,3.44,16.03,3.66,16.61,8.43,36,15.9,53.86,22.06,52.73,65.86,88.62,108.21,123.32,6.6,5.41,13.44,11,20.04,16.54,44.13,37.04,95.25,88.61,98.99,159.1l.02-.07Z"/>
        <path class="cls-1" d="m1609.36,260.07l1.04-.08c-2.46-30.69-13.82-59.76-34.69-88.86-16.01-22.32-37.48-44.45-67.58-69.69-6.09-5.11-12.36-10.27-18.42-15.25-43.07-35.41-87.6-72.02-109.88-125.59-7.5-18.07-12.24-37.48-15.87-54.08-1.21-5.53-2.38-11.18-3.53-16.64-6.61-31.72-13.44-64.54-30.39-90.44-13.3-20.29-32.83-36.69-59.7-50.13-23.9-11.95-51.15-20.47-77.49-28.69-18.61-5.82-37.84-11.82-55.55-18.95-3.54-1.43-7.14-2.95-10.68-4.52-49.54-22.01-90.35-53.99-134.76-90.45-18.27-14.99-34.54-28.53-49.71-41.4-42.96-36.44-78.17-69.06-107.66-99.66-4.46-4.64-8.86-9.32-13.06-13.87-15.87-17.15-31-34.49-45.65-51.27-6.05-6.93-12.31-14.09-18.53-21.14-10.41-11.83-21.15-23.8-31.88-35.57-25.46-27.87-52.53-56.37-78.68-83.93-26.8-28.22-54.51-57.41-81.23-86.67-4.37-4.78-8.66-9.51-12.73-14.04-9.04-10.07-18.13-20.35-26.93-30.32-25.53-28.91-51.93-58.82-79.83-85.82-20.6-19.93-42.8-39.25-64.27-57.94-4.65-4.05-9.47-8.24-14.17-12.36-73.45-64.15-135.82-124.47-154.98-213.07l-1.03.2c8.89,41.13,28.14,79.73,58.87,118.01,28.29,35.25,63.15,66.58,96.43,95.64,4.72,4.13,9.52,8.32,14.18,12.38,21.45,18.67,43.65,37.99,64.23,57.91,27.88,26.97,54.26,56.87,79.77,85.77,8.8,9.96,17.89,20.25,26.93,30.32,4.08,4.53,8.36,9.26,12.73,14.04,26.74,29.27,54.44,58.46,81.25,86.68,26.17,27.56,53.22,56.06,78.68,83.92,10.73,11.77,21.46,23.74,31.87,35.55,6.22,7.05,12.47,14.21,18.53,21.14,14.66,16.77,29.79,34.11,45.66,51.28,4.22,4.57,8.62,9.24,13.08,13.88,29.51,30.63,64.74,63.26,107.73,99.73,15.17,12.88,31.44,26.42,49.73,41.42,44.48,36.52,85.33,68.54,135,90.61,3.56,1.58,7.16,3.11,10.72,4.53,17.73,7.14,37,13.16,55.62,18.97,52.71,16.47,107.2,33.47,136.65,78.39,16.82,25.74,23.63,58.45,30.23,90.09,1.14,5.46,2.32,11.12,3.53,16.65,3.64,16.65,8.38,36.09,15.92,54.24,22.4,53.81,67.01,90.5,110.18,125.98,6.06,4.99,12.33,10.14,18.42,15.25,44.54,37.35,96.37,89.05,101.9,157.83v.02Z"/>
        <path class="cls-1" d="m1598,271.96l1.03-.12c-3.27-30.07-15.27-58.73-36.65-87.62-21.41-28.89-49.35-53.58-68.52-69.64-5.53-4.64-11.22-9.32-16.72-13.86-43.89-36.22-89.3-73.68-111.93-128.33-7.6-18.36-12.3-37.83-15.9-54.45-1.24-5.73-2.45-11.58-3.61-17.24-6.54-31.77-13.29-64.62-30.16-90.66-13.46-20.7-33.33-37.42-60.76-51.09-24.37-12.15-52.15-20.75-79.01-29.07-18.03-5.59-36.66-11.35-53.87-18.1-3.57-1.41-7.19-2.89-10.76-4.43-50.6-21.82-93.36-54.21-136.35-88.29-18.53-14.67-35.02-28-50.39-40.7-43.63-36.07-79.07-68.72-108.33-99.83-4.42-4.7-8.75-9.44-12.88-14.09-15.57-17.44-30.16-35.02-44.26-52.01-5.83-7.02-11.87-14.3-17.89-21.46-10.07-12-20.49-24.16-31-36.12-32.48-36.97-67.92-74.78-102.2-111.33-18.75-19.99-38.11-40.67-56.98-61.15-4.43-4.82-8.77-9.54-12.86-14.05-7.55-8.3-15.18-16.77-22.54-24.97-27.44-30.53-55.81-62.1-85.87-90.31-21.6-20.28-44.88-39.84-67.39-58.74-4.08-3.44-8.18-6.87-12.25-10.31-74.67-62.81-138.19-121.75-159.18-207.2l-1,.25c5.23,21.24,13.11,41.28,24.11,61.25,9.9,17.99,22.09,35.43,37.25,53.34,28.65,33.86,64.22,64.59,98.17,93.16,4.08,3.43,8.16,6.87,12.25,10.31,22.49,18.9,45.75,38.44,67.33,58.71,30.02,28.2,58.39,59.73,85.8,90.25,7.36,8.2,14.98,16.67,22.54,24.97,4.11,4.51,8.43,9.24,12.85,14.05,18.87,20.5,38.25,41.16,57,61.15,34.26,36.56,69.7,74.35,102.18,111.3,10.51,11.97,20.93,24.12,30.98,36.11,6.02,7.16,12.05,14.43,17.89,21.46,14.12,17,28.72,34.6,44.28,52.04,4.14,4.66,8.48,9.39,12.9,14.11,29.28,31.14,64.75,63.83,108.42,99.94,15.38,12.72,31.88,26.02,50.41,40.71,43.03,34.12,85.86,66.57,136.58,88.43,3.58,1.54,7.21,3.04,10.8,4.45,17.24,6.76,35.89,12.53,53.93,18.12,53.78,16.65,109.4,33.88,139.21,79.72,16.77,25.87,23.5,58.62,30,90.31,1.17,5.66,2.37,11.52,3.62,17.26,3.61,16.67,8.33,36.21,15.96,54.63,22.74,54.91,68.25,92.45,112.24,128.74,5.5,4.54,11.19,9.21,16.72,13.85,47.76,40.02,97.56,89.92,104.8,156.58v.02Z"/>
        <path class="cls-1" d="m1586.64,283.86l1.02-.13c-9-65.26-59.69-115.46-108.08-155.96-4.92-4.13-10-8.33-14.89-12.37-44.79-37.06-91.11-75.37-114.12-131.19-7.71-18.75-12.56-39.15-15.93-54.84-1.27-5.93-2.5-11.98-3.69-17.85-6.45-31.81-13.11-64.71-29.92-90.88-30.39-47.14-87.35-64.6-142.42-81.49-17.43-5.35-35.44-10.87-52.1-17.23-3.61-1.38-7.26-2.84-10.85-4.33-51.76-21.65-94.78-53.11-137.93-86.13-18.78-14.37-35.49-27.44-51.1-39.99-44.31-35.69-79.96-68.41-108.99-100.03-4.37-4.76-8.64-9.58-12.7-14.31-15.26-17.71-29.3-35.53-42.88-52.77-5.61-7.14-11.43-14.51-17.24-21.77-9.72-12.17-19.86-24.51-30.13-36.68-39.74-47.01-84.49-94.98-127.75-141.38-10.07-10.81-20.49-21.97-30.7-32.98-4.61-4.97-8.86-9.57-12.99-14.06-5.88-6.39-11.82-12.89-17.57-19.17-29.53-32.3-60.06-65.71-92.49-95.26-22.67-20.66-47.09-40.45-70.7-59.57-3.39-2.74-6.77-5.47-10.14-8.22-78.6-63.66-140.55-118.91-163.41-201.32l-.99.28c5.72,20.63,14.05,40.06,25.49,59.45,10.29,17.42,22.82,34.34,38.35,51.74,28.96,32.46,63.79,61.41,99.92,90.67,3.37,2.74,6.75,5.48,10.14,8.21,23.59,19.11,48,38.88,70.65,59.53,32.39,29.52,62.91,62.9,92.43,95.19,5.75,6.28,11.69,12.78,17.57,19.18,4.14,4.48,8.38,9.08,12.99,14.06,10.21,10.99,20.61,22.17,30.7,32.98,43.26,46.38,87.98,94.35,127.71,141.33,10.27,12.17,20.39,24.51,30.11,36.66,5.81,7.27,11.63,14.64,17.24,21.78,13.58,17.25,27.62,35.09,42.92,52.79,4.06,4.72,8.33,9.54,12.72,14.32,29.08,31.67,64.77,64.43,109.12,100.14,15.59,12.56,32.32,25.64,51.12,40,43.2,33.07,86.28,64.56,138.17,86.26,3.61,1.5,7.26,2.96,10.89,4.36,16.7,6.37,34.73,11.9,52.17,17.24,54.9,16.84,111.66,34.25,141.85,81.07,16.71,26,23.35,58.81,29.79,90.53,1.19,5.86,2.42,11.93,3.69,17.86,3.38,15.72,8.24,36.19,15.99,55.02,23.08,56.05,69.5,94.45,114.4,131.6,4.89,4.06,9.95,8.23,14.89,12.37,48.25,40.37,98.77,90.4,107.71,155.31l-.02-.03Z"/>
        <path class="cls-1" d="m1575.29,295.75l1.02-.17c-4.86-28.82-18.13-56.67-40.59-85.15-21.81-27.67-49.07-51.68-70.4-69.52-4.31-3.6-8.71-7.26-12.97-10.79-45.72-37.93-93-77.13-116.37-134.13-7.79-19.04-12.62-39.52-15.96-55.23-1.31-6.12-2.56-12.38-3.77-18.43-6.36-31.86-12.96-64.81-29.71-91.11-30.78-48.13-88.92-65.79-145.16-82.86-16.79-5.09-34.15-10.37-50.27-16.33-3.63-1.34-7.31-2.78-10.93-4.25-52.95-21.49-97.95-53.27-139.52-83.95-19.04-14.05-35.99-26.91-51.78-39.28-44.99-35.3-80.86-68.09-109.67-100.22-4.33-4.84-8.53-9.72-12.5-14.52-14.97-17.97-28.45-36.03-41.49-53.52-5.41-7.24-10.99-14.71-16.6-22.11-9.36-12.35-19.2-24.86-29.24-37.24-47.32-58.19-102.53-117.21-155.92-174.31l-1.78-1.9c-4.86-5.2-9.16-9.8-13.13-14.06-3.99-4.29-7.97-8.58-11.95-12.87-31.82-34.27-64.71-69.73-99.75-100.7-23.82-21.05-49.43-41.06-74.2-60.4-2.61-2.05-5.23-4.08-7.82-6.11-66.11-51.54-141.05-109.95-167.63-195.45l-.99.3c6.22,19.99,15,38.84,26.87,57.62,10.66,16.87,23.57,33.26,39.44,50.16,29.21,31.05,63.32,58.3,101.65,88.19,2.6,2.03,5.21,4.08,7.82,6.11,24.76,19.34,50.36,39.33,74.16,60.36,35,30.95,67.88,66.37,99.68,100.63,3.98,4.29,7.97,8.58,11.95,12.87,3.97,4.26,8.27,8.86,13.13,14.06l1.78,1.9c53.37,57.08,108.57,116.11,155.88,174.27,10.03,12.35,19.86,24.89,29.22,37.22,5.61,7.38,11.21,14.86,16.6,22.09,13.06,17.49,26.55,35.57,41.53,53.55,3.98,4.81,8.19,9.69,12.52,14.55,28.85,32.18,64.77,65.01,109.8,100.35,15.8,12.39,32.74,25.25,51.81,39.31,41.62,30.75,86.67,62.57,139.73,84.08,3.64,1.48,7.32,2.9,10.97,4.26,16.14,5.98,33.52,11.27,50.33,16.36,56.06,17.02,114.01,34.63,144.58,82.42,16.64,26.14,23.21,58.99,29.56,90.76,1.21,6.05,2.46,12.32,3.77,18.45,3.36,15.76,8.2,36.29,16.02,55.41,23.46,57.25,70.85,96.55,116.67,134.54,4.26,3.53,8.66,7.18,12.97,10.79,48.73,40.76,99.98,90.92,110.63,154.05l.02-.04Z"/>
        <path class="cls-1" d="m1563.93,307.65l1.03-.2c-5.65-28.19-19.58-55.65-42.55-83.91-22.08-27.19-49.72-51.4-71.34-69.47-3.62-3.03-7.28-6.06-10.92-9.09-46.71-38.82-95.01-78.93-118.78-137.19-6.13-15.08-11.07-32.23-16-55.62-1.33-6.32-2.6-12.77-3.83-19.02-6.29-31.91-12.81-64.91-29.49-91.35-31.17-49.16-90.55-67-147.97-84.25-16.13-4.84-32.8-9.86-48.33-15.44-3.66-1.32-7.37-2.72-11.02-4.16-54.23-21.33-101.26-53.41-141.08-81.8-19.31-13.74-36.46-26.36-52.47-38.58-45.67-34.92-81.76-67.75-110.34-100.42-4.27-4.9-8.42-9.87-12.32-14.73-14.66-18.24-27.61-36.55-40.11-54.27-5.19-7.34-10.55-14.94-15.96-22.43-9.01-12.51-18.55-25.22-28.37-37.79-44-56.25-94.57-111.88-156.96-178.09l-.09-.09c-4.4-4.67-8.79-9.33-13.19-14l-5.62-5.96c-34.33-36.48-69.83-74.21-107.73-106.75-25.02-21.46-51.9-41.69-77.93-61.26l-5.31-3.99c-70.51-52.88-143.44-107.57-171.83-189.57l-.99.33c6.71,19.36,15.94,37.62,28.25,55.81,11.03,16.31,24.31,32.21,40.55,48.56,29.34,29.55,64.18,56.29,103.39,85.69l5.31,3.99c25.99,19.56,52.88,39.77,77.87,61.22,37.86,32.5,71.76,68.53,107.65,106.68l5.62,5.96c4.39,4.66,8.79,9.33,13.19,14l.07.09c62.36,66.18,112.92,121.79,156.89,178.01,9.8,12.56,19.34,25.27,28.35,37.76,5.41,7.49,10.77,15.07,15.96,22.41,12.52,17.72,25.47,36.06,40.15,54.31,3.9,4.87,8.05,9.84,12.34,14.75,28.63,32.7,64.76,65.6,110.49,100.54,16.01,12.23,33.18,24.86,52.51,38.6,39.88,28.42,86.97,60.54,141.32,81.92,3.66,1.44,7.37,2.84,11.05,4.17,15.56,5.6,32.25,10.62,48.39,15.47,57.25,17.2,116.44,34.97,147.39,83.79,16.58,26.29,23.08,59.17,29.35,91,1.25,6.25,2.5,12.72,3.84,19.04,4.94,23.44,9.89,40.65,16.05,55.8,23.86,58.5,72.26,98.7,119.07,137.6,3.65,3.03,7.29,6.06,10.91,9.09,51.73,43.21,101.27,91.64,113.54,152.78v.03Z"/>
        <path class="cls-1" d="m1552.59,319.55l1-.24c-13.93-59.6-64.36-108.32-116.78-152.08-2.9-2.42-5.83-4.85-8.75-7.29-47.75-39.73-97.12-80.8-121.3-140.35-6.2-15.31-11.15-32.58-16.03-55.99-1.35-6.5-2.65-13.17-3.91-19.59-6.22-31.96-12.64-65.01-29.28-91.6-31.57-50.2-92.23-68.21-150.88-85.63-15.45-4.58-31.41-9.33-46.33-14.54-3.69-1.3-7.42-2.65-11.11-4.05-50.01-19.06-93.2-45.61-142.67-79.63-19.58-13.43-36.96-25.82-53.16-37.89-45.71-34.05-83.06-67.89-111-100.59-4.23-4.96-8.3-9.99-12.12-14.94-14.37-18.51-26.74-37.06-38.72-55.01-4.97-7.45-10.11-15.15-15.32-22.74-8.67-12.68-17.92-25.59-27.48-38.36-49.39-65.7-109.43-130.68-156.21-179.94-4.47-4.71-8.93-9.4-13.4-14.08-36.34-38.16-73.9-77.63-114.99-111.85-26.3-21.9-54.55-42.35-81.86-62.13l-2.56-1.87c-71.73-51.75-145.91-105.26-176.06-183.72l-.98.37c7.21,18.73,16.89,36.39,29.63,54,11.4,15.75,25.04,31.13,41.65,46.98,31.75,30.27,70.74,58.39,105.13,83.2l2.56,1.87c27.3,19.76,55.54,40.21,81.8,62.09,41.04,34.19,78.59,73.63,114.91,111.78,4.47,4.69,8.92,9.39,13.4,14.08,46.76,49.25,106.77,114.2,156.14,179.85,9.56,12.76,18.81,25.65,27.46,38.32,5.21,7.6,10.35,15.29,15.31,22.73,11.98,17.96,24.38,36.55,38.77,55.07,3.82,4.96,7.91,9.99,12.16,14.98,28,32.76,65.4,66.66,111.17,100.75,16.22,12.07,33.62,24.47,53.2,37.9,49.53,34.06,92.78,60.66,142.9,79.74,3.69,1.4,7.43,2.77,11.14,4.07,14.94,5.22,30.92,9.98,46.36,14.56,58.48,17.37,118.94,35.32,150.3,85.18,16.51,26.42,22.94,59.37,29.13,91.23,1.25,6.44,2.54,13.09,3.91,19.61,4.9,23.48,9.86,40.81,16.08,56.17,24.27,59.79,73.76,100.95,121.6,140.76,2.91,2.43,5.83,4.85,8.74,7.29,52.28,43.65,102.58,92.23,116.46,151.53v.02Z"/>
        <path class="cls-1" d="m1541.23,331.46l1-.27c-7.23-26.93-22.44-53.56-46.47-81.44-22.37-25.94-49.57-49.6-73.23-69.35-2.14-1.78-4.29-3.57-6.43-5.35-48.84-40.68-99.36-82.74-123.97-143.65-6.25-15.54-11.21-32.92-16.05-56.38-1.39-6.7-2.71-13.54-3.98-20.17-6.13-32.03-12.49-65.13-29.06-91.84-32-51.29-93.96-69.45-153.89-87.03-14.72-4.32-29.95-8.77-44.21-13.63-3.72-1.27-7.49-2.61-11.2-3.97-54.32-20.04-101.44-49.09-144.26-77.47-19.82-13.11-37.44-25.27-53.86-37.18-46.39-33.66-83.96-67.57-111.68-100.79-4.18-5.04-8.2-10.14-11.94-15.15-14.06-18.77-25.9-37.58-37.34-55.77-4.75-7.55-9.67-15.36-14.67-23.06-8.31-12.85-17.26-25.94-26.61-38.92-38.86-53.79-88.25-111.57-155.48-181.81-4.14-4.33-8.58-8.94-13.54-14.1-38.21-39.68-75.89-78.05-116.65-111-27.65-22.35-57.12-42.87-85.63-62.72l-.12-.1c-76.29-52.9-148.35-102.88-180.14-177.77l-.95.4c31.92,75.16,104.09,125.21,180.51,178.21l.12.1c28.49,19.84,57.95,40.36,85.57,62.68,40.72,32.91,78.37,71.24,116.54,110.91,4.96,5.15,9.38,9.76,13.54,14.09,67.18,70.22,116.55,127.95,155.37,181.71,9.33,12.96,18.27,26.03,26.59,38.87,5,7.71,9.92,15.5,14.67,23.05,11.46,18.21,23.31,37.03,37.39,55.83,3.74,5.03,7.76,10.14,11.96,15.19,27.78,33.29,65.42,67.26,111.87,100.95,16.43,11.91,34.06,24.07,53.89,37.21,42.88,28.43,90.05,57.5,144.47,77.57,3.72,1.36,7.49,2.71,11.22,3.98,14.28,4.85,29.51,9.33,44.25,13.64,59.74,17.51,121.52,35.63,153.3,86.58,16.47,26.55,22.8,59.57,28.92,91.49,1.27,6.62,2.59,13.48,3.98,20.18,4.86,23.52,9.84,40.97,16.11,56.56,24.71,61.15,75.31,103.29,124.27,144.05,2.14,1.78,4.28,3.58,6.43,5.35,49.26,41.1,103.17,89.97,119.35,150.26l.06.04Z"/>
        <path class="cls-1" d="m1529.88,343.34l.99-.3c-8.01-26.29-23.85-52.52-48.42-80.2-22.4-25.24-48.9-48.22-74.18-69.3l-3.95-3.3c-50-41.66-101.71-84.75-126.78-147.07-6.22-15.55-11.34-33.59-16.1-56.77-1.41-6.89-2.74-13.93-4.03-20.74-6.07-32.07-12.35-65.24-28.86-92.09-32.43-52.39-95.76-70.71-156.99-88.43-13.98-4.03-28.43-8.21-41.99-12.69-3.75-1.23-7.55-2.54-11.29-3.88-55.77-19.92-103.04-47.96-145.84-75.3-20.09-12.79-37.93-24.73-54.55-36.47-47.05-33.26-84.86-67.24-112.35-100.98-4.14-5.1-8.1-10.27-11.75-15.35-13.77-19.04-25.05-38.09-35.96-56.53-4.53-7.66-9.23-15.57-14.03-23.38-7.96-13.01-16.63-26.29-25.72-39.47-38.57-55.61-89.18-115.69-154.73-183.68-4.35-4.51-8.82-9.11-13.66-14.11-34.53-35.47-74.99-76.16-118.29-110.14-29-22.75-61.06-44.22-86.83-61.47l-3.44-2.29c-75.94-50.61-147.68-98.4-181.04-169.67l-.94.45c33.49,71.55,105.33,119.41,181.41,170.1l3.44,2.29c25.75,17.23,57.78,38.69,86.77,61.43,43.25,33.94,83.69,74.59,118.18,110.04,4.86,4.99,9.33,9.6,13.66,14.09,65.51,67.95,116.1,128,154.62,183.55,9.09,13.16,17.74,26.41,25.7,39.42,4.8,7.82,9.48,15.72,14.01,23.37,10.92,18.45,22.23,37.51,36.01,56.6,3.65,5.1,7.62,10.29,11.78,15.4,27.56,33.81,65.42,67.85,112.56,101.16,16.64,11.74,34.5,23.69,54.59,36.5,42.84,27.37,90.18,55.45,146.05,75.41,3.75,1.34,7.54,2.65,11.31,3.88,13.58,4.49,28.05,8.67,42.03,12.7,61.04,17.66,124.18,35.92,156.4,87.97,16.41,26.7,22.67,59.77,28.71,91.74,1.3,6.81,2.64,13.87,4.05,20.76,4.76,23.25,9.89,41.34,16.15,56.95,25.14,62.56,76.96,105.74,127.07,147.48l3.95,3.3c49.84,41.55,104.52,90.75,122.27,149l.04.03Z"/>
        <path class="cls-1" d="m1518.52,355.25l.99-.33c-19.34-56.4-72.6-104.14-125.51-148.2l-1.33-1.1c-51.24-42.68-104.21-86.82-129.74-150.61-6.29-15.76-11.42-33.92-16.13-57.16-1.43-7.07-2.79-14.3-4.08-21.3-5.99-32.14-12.19-65.36-28.65-92.36-32.86-53.54-97.6-72-160.21-89.85-13.19-3.76-26.83-7.65-39.67-11.76-3.77-1.21-7.59-2.48-11.37-3.78-57.45-19.85-106.76-48.11-147.42-73.14-20.34-12.49-38.41-24.18-55.24-35.77-47.73-32.87-85.76-66.92-113.03-101.15-4.1-5.16-7.99-10.4-11.55-15.57-13.46-19.31-24.21-38.6-34.59-57.27-4.31-7.76-8.77-15.78-13.39-23.7-7.61-13.18-15.98-26.65-24.85-40.02-37.92-56.95-89.72-119.38-153.98-185.56-4.38-4.52-9.02-9.27-13.8-14.12-36.59-37.18-76.44-76.16-119.94-109.27-27.99-21.3-57.61-40.64-88.03-60.21l-7.04-4.51c-75.51-48.28-146.83-93.9-181.67-161.6l-.92.48c34.96,67.95,106.4,113.63,182.03,162.01l7.04,4.51c30.4,19.56,60,38.89,87.96,60.15,43.45,33.09,83.27,72.02,119.83,109.17,4.78,4.86,9.42,9.6,13.8,14.1,64.21,66.12,115.99,128.51,153.86,185.39,8.86,13.36,17.21,26.81,24.82,39.96,4.6,7.91,9.06,15.93,13.37,23.69,10.4,18.68,21.14,38.01,34.64,57.36,3.59,5.18,7.48,10.43,11.6,15.63,27.32,34.33,65.43,68.43,113.24,101.37,16.84,11.58,34.92,23.29,55.28,35.79,40.7,25.05,90.09,53.35,147.61,73.23,3.78,1.3,7.62,2.58,11.4,3.79,12.87,4.12,26.5,8.01,39.7,11.77,62.42,17.8,126.96,36.2,159.62,89.4,16.35,26.83,22.54,59.97,28.51,92.01,1.31,7,2.65,14.24,4.08,21.32,4.73,23.29,9.86,41.5,16.18,57.34,25.64,64.05,78.71,108.27,130.06,151.03l1.32,1.1c52.79,43.96,105.94,91.59,125.17,147.73h.02Z"/>
        <path class="cls-1" d="m1507.18,367.15l.97-.37c-9.55-24.98-26.66-50.4-52.34-77.71-23.44-24.95-51.56-48.79-76.06-69.18-51.81-43.12-105.39-87.72-131.43-153.09-6.35-15.99-11.48-34.27-16.16-57.53-1.45-7.26-2.83-14.67-4.15-21.86-5.91-32.19-12.04-65.49-28.46-92.62-14.93-24.51-38-43.97-70.54-59.51-28.78-13.75-61.43-22.91-93-31.78-12.37-3.48-25.16-7.06-37.24-10.82-3.81-1.19-7.66-2.43-11.46-3.69-59.07-19.73-108.46-46.94-149.01-70.97-20.6-12.18-38.89-23.64-55.92-35.06-48.41-32.49-86.66-66.59-113.69-101.35-4.05-5.24-7.88-10.54-11.37-15.78-13.17-19.57-23.35-39.12-33.21-58.02-4.11-7.87-8.33-15.99-12.73-24.02-7.27-13.35-15.34-27-23.96-40.58-37.55-58.83-89.12-121.88-153.23-187.41-4.44-4.54-9.13-9.29-13.94-14.13-34.47-34.66-75.86-74.64-121.58-108.43-29.12-21.52-60.05-40.91-89.22-58.94-3.65-2.23-7.29-4.47-10.92-6.7-74.98-45.98-145.77-89.39-182.01-153.53l-.9.51c36.35,64.37,107.28,107.87,182.36,153.91,3.63,2.22,7.27,4.46,10.92,6.7,29.16,18.02,60.06,37.41,89.16,58.9,45.66,33.73,87.03,73.68,121.47,108.31,4.79,4.82,9.48,9.57,13.92,14.11,64.07,65.49,115.59,128.48,153.1,187.25,8.62,13.55,16.67,27.2,23.93,40.52,4.39,8.02,8.62,16.15,12.72,24.01,9.86,18.92,20.07,38.5,33.26,58.12,3.52,5.26,7.35,10.58,11.42,15.84,27.1,34.85,65.43,69.03,113.94,101.58,17.05,11.42,35.36,22.91,55.98,35.08,26.86,15.92,49.69,28.38,71.86,39.19,26.47,12.91,51.77,23.34,77.33,31.87,3.8,1.27,7.67,2.52,11.48,3.71,12.09,3.76,24.9,7.35,37.28,10.83,63.82,17.92,129.82,36.45,162.93,90.83,16.32,26.98,22.41,60.16,28.32,92.27,1.32,7.18,2.7,14.6,4.15,21.87,4.69,23.33,9.84,41.68,16.21,57.71,11.62,29.17,29.94,56.92,55.99,84.83,23.57,25.25,51.3,48.33,75.75,68.68,55.72,46.36,107.45,92.46,128.1,146.48h-.03Z"/>
        <path class="cls-1" d="m1495.82,379.05l.95-.4c-10.31-24.33-28.07-49.35-54.3-76.48-23.21-24.01-49.67-46.39-77-69.13-49.34-41.03-105.25-87.52-131.77-154.45-6.41-16.2-11.55-34.62-16.19-57.92-1.49-7.43-2.87-15.04-4.2-22.4-5.84-32.26-11.9-65.62-28.26-92.9-15.14-25.04-38.68-44.88-71.98-60.67-29.44-13.94-62.77-23.14-95.01-32.05-11.51-3.18-23.4-6.46-34.68-9.86-3.83-1.16-7.71-2.37-11.54-3.61-47.7-15.4-94.14-36.62-150.57-68.8-20.86-11.86-39.38-23.11-56.62-34.35-48.41-31.63-87.95-66.76-114.36-101.54-4.01-5.3-7.77-10.69-11.18-16-12.86-19.84-22.5-39.63-31.82-58.77-3.88-7.96-7.89-16.21-12.08-24.34-6.92-13.53-14.69-27.37-23.09-41.13-19.06-31.13-42.39-63.72-69.35-96.88-24.85-30.54-52.82-61.64-83.13-92.4-4.52-4.58-9.24-9.34-14.06-14.14-32.18-32.01-75.27-73.17-123.24-107.56-30.24-21.68-62.53-41.14-90.43-57.68-5.06-2.97-10.1-5.93-15.1-8.88-74.33-43.66-144.53-84.89-182.04-145.5l-.89.56c37.64,60.82,107.96,102.11,182.4,145.83,5.02,2.95,10.06,5.9,15.1,8.88,27.88,16.53,60.14,35.98,90.35,57.62,47.9,34.35,90.95,75.47,123.11,107.45,4.82,4.79,9.54,9.54,14.06,14.12,63.19,64.12,115.86,129.51,152.34,189.09,8.38,13.75,16.14,27.58,23.05,41.08,4.19,8.13,8.2,16.36,12.08,24.32,9.33,19.17,18.99,38.99,31.88,58.88,3.43,5.33,7.21,10.73,11.22,16.07,14.15,18.63,31.93,37.3,52.84,55.46,18.35,15.93,39.15,31.52,61.79,46.32,17.27,11.27,35.8,22.52,56.69,34.39,56.49,32.22,103,53.48,150.78,68.9,3.83,1.23,7.73,2.44,11.56,3.6,11.3,3.4,23.19,6.69,34.71,9.88,65.27,18.02,132.79,36.67,166.37,92.26,16.26,27.11,22.3,60.38,28.12,92.55,1.33,7.35,2.72,14.97,4.2,22.41,4.67,23.37,9.82,41.84,16.24,58.1,11.68,29.44,30,57.42,56.03,85.56,22.55,24.35,47.78,45.79,76.04,69.31,58.68,48.8,109.05,93.4,131.01,145.21h-.01Z"/>
        <path class="cls-1" d="m1484.47,390.95l.95-.45c-25.08-53.65-83.05-101.82-134.2-144.31-57.5-47.78-107.14-92.49-132.11-155.81-6.46-16.43-11.62-34.96-16.22-58.32-1.52-7.61-2.89-15.4-4.24-22.94-5.78-32.32-11.75-65.76-28.05-93.18-15.36-25.6-39.37-45.83-73.48-61.86-30.1-14.14-64.16-23.38-97.09-32.3-10.61-2.88-21.58-5.86-32.01-8.9-3.86-1.12-7.77-2.31-11.63-3.5-49.13-15.3-96.05-35.85-152.16-66.64-21.11-11.55-39.86-22.57-57.31-33.65-34.22-21.8-81.96-57.13-115.04-101.74-3.95-5.36-7.66-10.81-10.99-16.21-12.57-20.11-21.65-40.15-30.44-59.53-3.66-8.08-7.45-16.42-11.44-24.66-6.58-13.7-14.05-27.72-22.2-41.69-35.89-61.2-88.36-127.28-151.76-191.16-4.57-4.6-9.35-9.35-14.2-14.14-47.48-46.73-85.99-79.65-124.89-106.7-29.83-20.74-61.66-39.38-91.63-56.42-6.57-3.71-13.19-7.43-19.61-11.03-73.58-41.32-143.07-80.36-181.77-137.47l-.87.59c38.82,57.31,108.42,96.4,182.11,137.79,6.41,3.6,13.05,7.32,19.6,11.03,29.93,17.03,61.74,35.64,91.55,56.37,38.84,27.03,77.31,59.9,124.75,106.59,4.85,4.77,9.62,9.52,14.2,14.13,63.33,63.8,115.75,129.83,151.59,190.95,8.15,13.95,15.6,27.95,22.17,41.63,3.99,8.24,7.78,16.58,11.42,24.64,8.81,19.41,17.9,39.47,30.51,59.65,3.36,5.41,7.07,10.88,11.04,16.27,33.17,44.73,81.01,80.16,115.31,101.99,17.47,11.11,36.24,22.12,57.37,33.68,56.16,30.82,103.16,51.4,152.35,66.72,3.86,1.2,7.78,2.38,11.65,3.52,10.43,3.05,21.41,6.03,32.03,8.91,66.79,18.12,135.86,36.85,169.93,93.68,16.22,27.25,22.17,60.59,27.94,92.83,1.35,7.54,2.73,15.33,4.24,22.96,4.63,23.42,9.79,42,16.27,58.49,11.72,29.7,30.06,57.93,56.09,86.29,23.2,25.27,49.34,47.51,76.33,69.94,51.07,42.43,108.96,90.52,133.92,143.95v-.02Z"/>
        <path class="cls-1" d="m1473.13,402.86l.92-.48c-26.09-50.88-81.67-97.01-135.42-141.62l-1.69-1.4c-55.32-45.94-107.08-92.52-132.47-157.17-6.51-16.64-11.69-35.3-16.26-58.69-1.52-7.8-2.92-15.76-4.29-23.47-5.71-32.4-11.61-65.91-27.87-93.46-15.57-26.18-40.12-46.8-75.03-63.06-30.81-14.34-65.59-23.6-99.24-32.55-9.67-2.57-19.66-5.23-29.2-7.92-3.89-1.1-7.83-2.26-11.71-3.42-49.95-15.02-98.81-35.49-153.74-64.48-21.38-11.24-40.35-22.02-58-32.96-34.7-21.51-82.94-56.66-115.71-101.91-3.91-5.44-7.55-10.95-10.81-16.42-12.28-20.39-20.81-40.66-29.07-60.26-3.44-8.17-7.01-16.63-10.78-24.98-6.23-13.86-13.4-28.08-21.34-42.26-35.16-62.63-87.38-129.38-151.01-193.01-4.63-4.62-9.44-9.39-14.34-14.15-46.59-45.39-86.8-79.02-126.53-105.84-30.92-20.85-64.27-39.58-92.82-55.15-8.19-4.43-16.44-8.87-24.43-13.15-72.72-39-141.41-75.85-181.15-129.48l-.84.62c39.88,53.82,108.67,90.71,181.51,129.77,7.99,4.28,16.24,8.72,24.43,13.15,28.53,15.55,61.87,34.27,92.74,55.1,39.69,26.79,79.84,60.38,126.39,105.73,4.88,4.77,9.71,9.52,14.32,14.14,63.57,63.58,115.72,130.25,150.83,192.79,7.91,14.14,15.07,28.34,21.28,42.17,3.79,8.35,7.34,16.79,10.78,24.96,8.27,19.65,16.82,39.96,29.13,60.41,3.27,5.48,6.92,11.03,10.86,16.5,32.87,45.39,81.23,80.63,116.01,102.2,17.68,10.95,36.68,21.74,58.07,32.98,54.99,29.01,103.9,49.52,153.93,64.54,3.89,1.17,7.84,2.31,11.73,3.41,9.54,2.7,19.53,5.36,29.21,7.92,68.38,18.2,139.07,37,173.64,95.13,16.18,27.4,22.06,60.8,27.75,93.11,1.35,7.71,2.76,15.69,4.3,23.5,4.58,23.46,9.76,42.16,16.31,58.88,11.78,29.97,30.13,58.43,56.13,87.02,23.81,26.19,50.92,49.21,76.63,70.57l1.7,1.4c53.66,44.54,109.16,90.6,135.16,141.29Z"/>
        <path class="cls-1" d="m1461.76,414.74l.9-.51c-26.95-48.05-80.99-92.82-133.23-136.11-2.25-1.88-4.52-3.73-6.75-5.61-55.25-45.85-106.99-92.47-132.82-158.53-6.57-16.87-11.75-35.64-16.28-59.08-1.54-7.97-2.96-16.11-4.33-24.01-5.64-32.47-11.47-66.04-27.69-93.76-15.79-26.77-40.87-47.81-76.66-64.31-.17-.09-.34-.16-.51-.24-31.4-14.4-66.76-23.62-100.94-32.53-8.67-2.27-17.65-4.59-26.23-6.95-3.92-1.08-7.89-2.2-11.8-3.33-51.54-14.92-100.9-34.73-155.32-62.3-21.64-10.93-40.83-21.47-58.7-32.25-35.17-21.24-83.91-56.19-116.37-102.11-3.78-5.38-7.36-10.97-10.61-16.63-11.94-20.7-19.96-41.23-27.7-61.09-3.22-8.25-6.54-16.79-10.12-25.23-5.89-14.03-12.77-28.44-20.45-42.82-17.56-32.71-39.89-66.55-66.37-100.58-24.98-32.11-53.21-63.84-83.89-94.32-4.67-4.64-9.55-9.4-14.48-14.16-46.41-44.75-87.14-78.11-128.19-104.99-31.89-20.88-65.42-38.96-94.02-53.89-9.92-5.15-19.92-10.26-29.6-15.2-71.76-36.69-139.53-71.35-180.23-121.57l-.8.66c40.83,50.4,108.7,85.09,180.56,121.83,9.66,4.95,19.66,10.05,29.58,15.21,28.58,14.92,62.09,32.98,93.94,53.84,40.99,26.84,81.67,60.15,128.02,104.86,4.93,4.76,9.79,9.51,14.46,14.14,63.86,63.43,115.76,130.74,150.08,194.64,7.67,14.34,14.55,28.73,20.41,42.72,3.56,8.42,6.89,16.96,10.1,25.2,7.77,19.89,15.79,40.47,27.78,61.25,3.27,5.69,6.86,11.3,10.66,16.71,32.57,46.07,81.43,81.11,116.69,102.41,17.89,10.79,37.1,21.34,58.76,32.29,54.49,27.61,103.9,47.42,155.51,62.37,3.91,1.13,7.9,2.25,11.82,3.33,8.59,2.35,17.57,4.7,26.24,6.95,70.01,18.25,142.38,37.13,177.48,96.59,16.14,27.55,21.95,61.03,27.57,93.4,1.37,7.9,2.79,16.04,4.33,24.03,4.55,23.5,9.75,42.34,16.33,59.26,11.82,30.24,30.2,58.94,56.19,87.75,21.95,24.33,46.63,46.07,76.94,71.2,2.25,1.86,4.5,3.74,6.75,5.61,52.18,43.24,106.13,87.93,132.99,135.83v.03Z"/>
        <path class="cls-1" d="m1450.42,426.64l.89-.54c-27.65-45.22-80-88.46-130.63-130.29-4.09-3.39-8.2-6.76-12.27-10.13-52.99-43.94-106.91-92.46-133.15-159.9-6.54-16.86-11.87-36.31-16.32-59.47-1.56-8.14-3-16.47-4.37-24.54-5.57-32.55-11.33-66.2-27.51-94.05-16.03-27.38-41.66-48.82-78.36-65.57-32.29-14.73-68.62-24.01-103.76-32.97-7.65-1.95-15.53-3.96-23.12-5.97-3.95-1.05-7.94-2.14-11.88-3.23-53.23-14.84-103.09-33.95-156.91-60.14-21.89-10.61-41.33-20.93-59.39-31.54-35.64-20.96-84.89-55.73-117.05-102.3-3.74-5.44-7.25-11.12-10.43-16.84-11.63-20.96-19.11-41.74-26.33-61.85-3-8.36-6.1-17-9.47-25.55-5.54-14.2-12.13-28.79-19.57-43.37-17.04-33.21-39.03-67.45-65.37-101.79-24.97-32.57-53.27-64.52-84.14-94.96-4.72-4.66-9.64-9.43-14.6-14.17-45.64-43.56-88.11-77.62-129.82-104.13-33.03-20.97-68.23-39.14-95.22-52.64-11.79-5.85-23.64-11.62-35.1-17.19-70.68-34.39-137.43-66.86-178.93-113.71l-.78.69c41.66,47.01,108.5,79.53,179.26,113.95,11.46,5.57,23.3,11.34,35.1,17.19,26.96,13.47,62.15,31.63,95.14,52.57,41.66,26.47,84.06,60.48,129.66,104,4.96,4.73,9.88,9.49,14.6,14.15,64.21,63.35,115.86,131.29,149.32,196.48,7.42,14.55,14,29.11,19.54,43.28,3.36,8.53,6.46,17.17,9.46,25.52,7.23,20.14,14.72,40.96,26.4,61.99,3.2,5.76,6.72,11.45,10.48,16.94,13.51,19.56,31.31,38.79,52.93,57.17,19.06,16.22,40.75,31.51,64.44,45.43,18.1,10.62,37.54,20.94,59.47,31.58,53.88,26.21,103.79,45.34,157.08,60.21,3.94,1.09,7.95,2.19,11.9,3.24,7.59,2,15.49,4.03,23.13,5.96,68.36,17.44,145.84,37.2,181.47,98.05,16.08,27.69,21.84,61.24,27.37,93.7,1.39,8.07,2.81,16.4,4.37,24.55,4.45,23.23,9.81,42.74,16.38,59.65,26.32,67.66,80.37,116.3,133.46,160.32,4.07,3.38,8.16,6.75,12.26,10.13,50.58,41.77,102.87,84.96,130.42,130.04l-.03.04Z"/>
        <path class="cls-1" d="m1439.08,438.55l.87-.57c-28.15-42.37-78.7-83.92-127.56-124.11-5.98-4.92-12.19-10.03-18.24-15.02-50.61-41.93-106.84-92.43-133.51-161.26-6.6-17.07-11.94-36.66-16.35-59.86-1.58-8.3-3.02-16.82-4.4-25.05-5.5-32.62-11.19-66.35-27.33-94.35-16.05-27.63-41.76-49.28-78.58-66.17-.51-.24-1.04-.46-1.55-.71-33.1-14.94-70.25-24.18-106.16-33.13-6.55-1.62-13.32-3.32-19.84-4.99-3.98-1.01-8-2.07-11.97-3.14-54.28-14.57-106.12-33.53-158.49-57.98-22.16-10.3-41.8-20.39-60.08-30.84-36.12-20.69-85.88-55.26-117.72-102.49-3.71-5.52-7.14-11.26-10.25-17.05-11.34-21.23-18.26-42.26-24.95-62.59-2.78-8.46-5.66-17.21-8.82-25.87-5.2-14.37-11.49-29.15-18.69-43.93-16.52-33.69-38.17-68.36-64.38-103.03-24.95-33.02-53.34-65.17-84.39-95.58-4.78-4.68-9.73-9.45-14.74-14.17-45.57-43.04-88.57-76.82-131.48-103.26-33.95-20.92-69.37-38.44-96.43-51.36-13.79-6.54-27.59-12.92-40.96-19.09-69.48-32.09-135.11-62.41-177.31-105.95l-.75.72c42.33,43.67,108.04,74.04,177.62,106.16,13.35,6.18,27.17,12.55,40.94,19.09,27.04,12.92,62.42,30.42,96.33,51.31,42.83,26.4,85.79,60.14,131.3,103.14,4.99,4.72,9.96,9.49,14.72,14.16,63.69,62.4,116.46,132.82,148.57,198.34,7.18,14.73,13.46,29.48,18.65,43.83,3.16,8.64,6.03,17.4,8.82,25.84,6.71,20.38,13.64,41.45,25.02,62.76,3.11,5.83,6.57,11.6,10.3,17.14,13.34,19.78,31.16,39.16,52.96,57.6,19.25,16.29,41.16,31.49,65.1,45.21,18.31,10.46,37.98,20.56,60.15,30.87,52.43,24.47,104.33,43.46,158.66,58.03,3.97,1.07,8.01,2.12,11.99,3.14,6.52,1.66,13.31,3.36,19.85,4.98,70.05,17.45,149.46,37.22,185.65,99.51,16.04,27.84,21.71,61.48,27.21,94.01,1.38,8.24,2.82,16.74,4.4,25.06,4.42,23.27,9.79,42.9,16.4,60.04,11.93,30.78,30.34,59.96,56.3,89.22,24.33,27.43,52.84,52.02,77.52,72.46,6.05,5.01,12.24,10.1,18.24,15.02,48.82,40.14,99.29,81.65,127.36,123.87Z"/>
        <path class="cls-1" d="m1427.73,450.45l.85-.62c-28.45-39.46-76.99-79.15-123.95-117.52-8.14-6.65-16.57-13.53-24.75-20.31-50.55-41.86-106.77-92.39-133.85-162.62-6.64-17.29-12.01-37.01-16.37-60.23-1.61-8.47-3.05-17.16-4.43-25.56-5.43-32.7-11.05-66.52-27.15-94.66-16.54-28.67-43.36-50.98-82-68.21-33.93-15.12-71.92-24.33-108.66-33.25-5.4-1.32-10.98-2.67-16.38-4-4.01-.99-8.06-2.03-12.06-3.06-56.17-14.48-108.53-32.74-160.08-55.8-22.4-9.99-42.28-19.84-60.76-30.13-51.73-28.85-93.78-65.3-118.4-102.68-3.65-5.58-7.03-11.4-10.05-17.26-11.03-21.5-17.4-42.77-23.56-63.35-2.57-8.57-5.22-17.42-8.18-26.19-4.85-14.54-10.84-29.52-17.81-44.48-31.24-66.81-83.81-138.02-148.02-200.49-4.82-4.69-9.82-9.45-14.88-14.18-45.53-42.58-89.08-76.08-133.12-102.4-26.48-15.83-55.75-30.91-94.51-48.68-1.02-.47-2.07-.95-3.11-1.43-15.9-7.2-31.8-14.16-47.18-20.88-68.17-29.82-132.56-58-175.32-98.28l-.71.76c42.89,40.4,107.36,68.62,175.62,98.48,15.37,6.72,31.28,13.68,47.16,20.88,40.28,18.38,70.36,33.82,97.53,50.05,43.98,26.29,87.47,59.74,132.94,102.28,5.04,4.71,10.05,9.49,14.86,14.17,64.12,62.38,116.62,133.48,147.8,200.18,6.95,14.94,12.93,29.86,17.77,44.37,2.95,8.75,5.6,17.6,8.17,26.15,6.17,20.62,12.56,41.93,23.63,63.52,3.03,5.91,6.43,11.75,10.1,17.36,13.17,20.02,31,39.54,52.98,58.04,19.43,16.36,41.56,31.48,65.78,44.99,18.5,10.3,38.42,20.17,60.86,30.16,51.6,23.08,104.02,41.37,160.24,55.85,4.01,1.03,8.07,2.06,12.07,3.05,5.4,1.33,10.98,2.68,16.38,4,71.81,17.42,153.2,37.18,189.99,100.97,16,27.99,21.6,61.71,27.02,94.32,1.41,8.41,2.85,17.1,4.44,25.59,4.4,23.31,9.76,43.06,16.43,60.43,11.98,31.05,30.4,60.46,56.34,89.95,24.8,28.18,53.25,52.76,77.82,73.09,8.2,6.77,16.61,13.66,24.76,20.31,46.91,38.33,95.4,77.98,123.76,117.34l-.03-.05Z"/>
        <path class="cls-1" d="m1416.39,462.35l.82-.65c-28.5-36.54-72.79-72.48-119.69-110.51-10.49-8.52-21.35-17.32-31.88-26.04-54.23-44.85-108.01-95.76-134.2-163.98-6.7-17.52-12.06-37.34-16.41-60.62-1.63-8.64-3.07-17.5-4.47-26.07-5.36-32.78-10.91-66.69-26.97-94.97-37.62-65.74-121.32-85.5-195.19-102.93-4.29-1-8.52-2.02-12.74-3.02-4.02-.97-8.11-1.96-12.14-2.95-58.19-14.4-111.07-31.96-161.64-53.64-22.67-9.68-42.78-19.29-61.47-29.42-52.41-28.45-94.7-64.98-119.06-102.86-3.61-5.66-6.94-11.54-9.87-17.47-10.74-21.76-16.56-43.29-22.19-64.09-2.35-8.67-4.78-17.64-7.52-26.53-4.51-14.72-10.21-29.87-16.92-45.04-30.3-67.98-82.6-139.86-147.27-202.36-4.87-4.7-9.91-9.48-15-14.19-45.51-42.16-89.61-75.37-134.77-101.55-27.5-15.93-58.91-31.47-98.82-48.83-18.15-7.84-36.26-15.32-53.77-22.56-66.75-27.59-129.79-53.64-172.95-90.74l-.67.79c43.29,37.21,106.41,63.29,173.24,90.9,17.51,7.24,35.6,14.71,53.75,22.55,39.88,17.37,71.24,32.86,98.72,48.78,45.09,26.14,89.12,59.3,134.59,101.42,5.09,4.71,10.13,9.49,14.98,14.17,64.59,62.41,116.81,134.17,147.05,202.04,6.71,15.14,12.38,30.24,16.89,44.93,2.75,8.86,5.16,17.83,7.51,26.48,5.65,20.85,11.47,42.42,22.27,64.28,2.95,5.98,6.29,11.9,9.92,17.58,24.46,38.04,66.87,74.69,119.44,103.22,18.71,10.14,38.86,19.79,61.55,29.47,50.64,21.71,103.56,39.27,161.81,53.7,4.04,1,8.14,1.99,12.16,2.95,4.22,1,8.45,2,12.74,3.02,73.65,17.39,157.11,37.09,194.52,102.43,15.96,28.13,21.51,61.93,26.85,94.63,1.4,8.58,2.85,17.44,4.47,26.1,4.35,23.35,9.74,43.23,16.47,60.8,12.03,31.31,30.47,60.99,56.4,90.68,25.39,29.08,55.08,54.67,78.11,73.74,10.55,8.72,21.39,17.53,31.9,26.04,46.86,38.01,91.1,73.9,119.53,110.34h-.07Z"/>
        <path class="cls-1" d="m1405.04,474.23l.8-.68c-28.29-33.57-70.27-67.29-114.73-103.02-13.1-10.52-26.63-21.4-39.76-32.24-54.17-44.79-107.97-95.8-134.53-165.34-6.75-17.73-12.13-37.69-16.45-61.01-1.64-8.81-3.08-17.85-4.5-26.58-5.28-32.87-10.76-66.85-26.78-95.28-38.28-67.37-124.16-87.04-199.93-104.4-2.98-.68-5.94-1.36-8.89-2.03-4.01-.92-8.12-1.89-12.24-2.86-61.18-14.53-113.06-30.89-163.23-51.48-22.93-9.36-43.26-18.77-62.15-28.71-30.76-16.25-87.2-51.22-119.73-103.06-3.57-5.73-6.83-11.68-9.68-17.68-10.43-22.03-15.71-43.78-20.81-64.84-2.13-8.78-4.33-17.86-6.88-26.84-4.16-14.89-9.57-30.22-16.05-45.59-29.32-69.14-81.36-141.68-146.53-204.23-4.93-4.72-10.02-9.5-15.14-14.2-45.56-41.77-90.18-74.71-136.41-100.69-28.17-15.83-59.96-30.95-100.02-47.58-20.53-8.45-40.96-16.4-60.73-24.09-65.21-25.38-126.79-49.35-170.23-83.33l-.65.82c43.54,34.09,105.2,58.09,170.49,83.49,19.76,7.69,40.18,15.64,60.69,24.08,40.03,16.62,71.79,31.72,99.92,47.53,46.17,25.94,90.74,58.84,136.23,100.55,5.13,4.7,10.22,9.47,15.12,14.18,65.07,62.47,117.02,134.87,146.3,203.88,6.46,15.33,11.86,30.62,16.01,45.48,2.55,8.97,4.74,18.03,6.87,26.79,5.11,21.1,10.4,42.91,20.88,65.04,2.86,6.05,6.14,12.03,9.74,17.79,32.66,52.03,89.29,87.14,120.13,103.42,18.92,9.98,39.28,19.39,62.25,28.76,50.23,20.6,102.16,36.98,163.39,51.52,4.11.97,8.23,1.94,12.24,2.86,2.94.67,5.91,1.35,8.89,2.03,75.56,17.3,161.22,36.92,199.27,103.89,15.93,28.27,21.39,62.16,26.66,94.94,1.4,8.74,2.87,17.79,4.51,26.59,4.32,23.39,9.72,43.41,16.49,61.19,12.07,31.6,30.54,61.49,56.44,91.41,25.81,29.79,55.45,55.39,78.41,74.37,13.11,10.84,26.66,21.72,39.76,32.24,44.41,35.69,86.37,69.38,114.59,102.88l-.03.02Z"/>
        <path class="cls-1" d="m1393.7,486.14l.77-.71c-27.74-30.52-67.16-61.83-108.91-94.96-15.98-12.68-32.51-25.81-48.47-38.98-51.52-42.57-107.86-95.65-134.89-166.7-6.81-17.95-12.2-38.04-16.49-61.4-1.65-8.98-3.11-18.18-4.51-27.08-5.23-32.95-10.62-67.02-26.63-95.61-17.38-30.83-46.22-54.53-88.19-72.45-36.69-15.68-77.38-24.69-116.72-33.4l-4.8-1.06c-4.15-.93-8.25-1.85-12.33-2.78-63.53-14.46-115.91-30.13-164.81-49.3-23.18-9.06-43.75-18.22-62.84-28.02-31.14-16.02-88.21-50.71-120.41-103.25-3.54-5.79-6.72-11.83-9.49-17.91-10.14-22.3-14.86-44.3-19.44-65.58-1.91-8.88-3.88-18.07-6.22-27.17-3.82-15.06-8.94-30.59-15.17-46.17-14.34-35.57-34.67-71.9-60.39-107.94-24.77-34.72-53.5-67.74-85.4-98.14-4.96-4.72-10.1-9.5-15.28-14.2-44.98-40.83-91.42-74.43-138.07-99.83-28.82-15.7-60.99-30.41-101.23-46.32-23.04-9.03-45.93-17.39-68.05-25.47-63.55-23.21-123.59-45.13-167.11-76.1l-.61.85c43.64,31.07,103.74,53.01,167.36,76.22,22.13,8.08,45,16.44,68.03,25.45,40.2,15.88,72.32,30.58,101.11,46.25,46.57,25.36,92.96,58.92,137.87,99.69,5.18,4.71,10.3,9.47,15.26,14.19,65.58,62.54,117.27,135.59,145.53,205.74,6.22,15.53,11.31,31.01,15.12,46.04,2.33,9.08,4.3,18.26,6.21,27.12,4.59,21.34,9.32,43.4,19.52,65.79,2.79,6.11,6,12.18,9.55,18.02,32.34,52.75,89.58,87.57,120.81,103.63,19.13,9.81,39.72,18.99,62.93,28.06,48.96,19.2,101.38,34.88,164.96,49.36,4.06.93,8.18,1.85,12.33,2.78l4.8,1.06c77.57,17.19,165.51,36.67,204.22,105.33,15.9,28.42,21.29,62.4,26.51,95.27,1.42,8.9,2.87,18.11,4.52,27.11,4.3,23.43,9.7,43.57,16.52,61.58,12.12,31.86,30.6,62.01,56.5,92.14,20.44,23.79,44.71,46.92,78.7,75,15.96,13.19,32.49,26.31,48.49,38.99,41.71,33.11,81.09,64.39,108.79,94.85h.03Z"/>
        <path class="cls-1" d="m1382.35,498.04l.75-.74c-26.84-27.41-63.4-56.01-102.08-86.31-19.2-15.04-39.06-30.58-58.18-46.37-51.49-42.5-107.82-95.71-135.23-168.06-6.85-18.16-12.27-38.37-16.51-61.77-1.67-9.15-3.13-18.51-4.54-27.57-5.17-33.03-10.51-67.2-26.46-95.93-17.68-31.6-47.28-55.78-90.49-73.94-37.72-15.84-81.23-25.15-119.63-33.35l-.48-.09c-4.18-.89-8.3-1.79-12.41-2.68-66.95-14.59-118.27-29.12-166.4-47.14-23.45-8.74-44.23-17.68-63.53-27.32-31.54-15.78-89.22-50.2-121.09-103.44-3.48-5.87-6.61-11.95-9.31-18.12-9.85-22.56-14.02-44.81-18.07-66.32-1.69-8.99-3.43-18.28-5.58-27.48-3.49-15.23-8.28-30.94-14.3-46.72-13.78-36.03-33.77-72.77-59.4-109.18-24.72-35.12-53.54-68.36-85.65-98.78-5-4.74-10.19-9.51-15.41-14.23-45.05-40.51-92.05-73.8-139.7-98.96-29.46-15.54-62-29.86-102.42-45.04-25.7-9.57-51.15-18.26-75.77-26.65-61.8-21.08-120.16-40.98-163.63-69.03l-.57.87c43.57,28.12,102.01,48.04,163.86,69.14,24.6,8.39,50.06,17.08,75.74,26.64,40.37,15.17,72.89,29.47,102.31,45,47.58,25.13,94.52,58.36,139.5,98.82,5.21,4.7,10.39,9.47,15.38,14.2,66.12,62.62,117.52,136.33,144.78,207.58,5.99,15.73,10.77,31.39,14.25,46.57,2.13,9.19,3.88,18.46,5.57,27.43,4.05,21.58,8.25,43.89,18.14,66.55,2.7,6.2,5.86,12.33,9.36,18.23,12.52,20.93,30.38,41.03,53.08,59.75,19.86,16.39,43.53,31.62,68.43,44.08,19.34,9.65,40.16,18.61,63.64,27.37,48.18,18.04,99.54,32.59,166.54,47.18,4.11.89,8.23,1.79,12.41,2.68l.49.11c79.69,17.02,170.01,36.34,209.42,106.78,15.86,28.58,21.18,62.65,26.33,95.6,1.42,9.08,2.88,18.46,4.55,27.6,4.25,23.47,9.68,43.74,16.56,61.97,12.18,32.15,30.68,62.53,56.54,92.87,20.47,23.99,45.57,48.02,79.01,75.63,19.13,15.79,38.99,31.34,58.2,46.38,38.66,30.27,75.19,58.86,101.97,86.21h.02Z"/>
        <path class="cls-1" d="m1371.01,509.94l.71-.75c-25.51-24.17-58.8-49.81-94.05-76.93-22.83-17.57-46.44-35.73-69.12-54.44-48.43-39.95-107.64-95.32-135.57-169.43-6.92-18.39-12.32-38.72-16.54-62.16-1.69-9.3-3.14-18.85-4.57-28.06-5.1-33.13-10.37-67.36-26.29-96.26-17.76-31.96-47.51-56.37-90.95-74.66-39.2-16.49-84.3-25.77-120.54-33.22l-12.5-2.59c-49.84-10.37-108.75-23.82-167.98-44.97-23.7-8.44-44.71-17.13-64.23-26.61-54.36-26.44-98.72-64.21-121.76-103.63-3.44-5.93-6.52-12.11-9.12-18.33-9.54-22.83-13.19-45.32-16.69-67.08-1.47-9.08-2.98-18.48-4.92-27.8-3.15-15.4-7.65-31.31-13.41-47.28-13.23-36.49-32.88-73.64-58.39-110.41-24.66-35.53-53.56-68.99-85.89-99.42-5.05-4.75-10.28-9.53-15.55-14.24-45.14-40.21-92.71-73.22-141.36-98.11-29.68-15.17-63.57-29.5-103.62-43.79-28.49-10.07-56.64-18.99-83.86-27.64-59.92-19.01-116.51-36.96-159.77-62.19l-.53.9c43.35,25.28,100.01,43.25,159.98,62.28,27.22,8.63,55.36,17.56,83.83,27.63,40.02,14.28,73.87,28.58,103.49,43.73,48.57,24.84,96.06,57.81,141.14,97.95,5.26,4.69,10.48,9.47,15.52,14.21,65.68,61.81,118.18,138.15,144.03,209.42,5.73,15.92,10.24,31.77,13.36,47.13,1.92,9.29,3.44,18.69,4.91,27.75,3.53,21.81,7.17,44.37,16.77,67.31,2.61,6.27,5.71,12.48,9.18,18.45,12.36,21.15,30.23,41.4,53.1,60.17,20.04,16.46,43.93,31.61,69.09,43.86,19.55,9.49,40.59,18.21,64.33,26.66,59.28,21.17,118.25,34.63,168.12,45.01l12.5,2.59c76.04,15.63,170.64,35.09,210.79,107.35,15.83,28.73,21.09,62.88,26.18,95.92,1.41,9.23,2.89,18.78,4.58,28.1,4.23,23.51,9.66,43.9,16.58,62.34,12.24,32.43,30.75,63.03,56.6,93.6,20.74,24.51,45.94,48.74,79.31,76.26,22.69,18.7,46.3,36.88,69.14,54.45,35.21,27.11,68.49,52.72,93.97,76.86v.07Z"/>
        <path class="cls-1" d="m1359.66,521.82l.69-.78c-23.63-20.83-53.22-43.13-84.54-66.75-26.95-20.32-54.81-41.32-81.51-63.34-48.41-39.91-107.62-95.38-135.93-170.79-6.96-18.61-12.39-39.07-16.58-62.55-1.69-9.47-3.16-19.18-4.59-28.56-5.03-33.21-10.23-67.56-26.12-96.6-17.78-32.25-47.61-56.87-91.18-75.27-37.48-15.82-80.43-25.01-121.2-33.07-4.24-.84-8.42-1.68-12.58-2.49-54.55-10.82-112.86-23.52-169.56-42.8-23.96-8.11-45.2-16.59-64.92-25.9-55.04-26.05-99.65-63.89-122.42-103.81-3.41-6.01-6.41-12.23-8.93-18.54-9.25-23.1-12.34-45.83-15.32-67.82-1.25-9.2-2.55-18.71-4.26-28.13-2.8-15.57-7.01-31.66-12.52-47.83-12.67-36.94-31.98-74.51-57.39-111.65-24.59-35.94-53.58-69.59-86.14-100.06-5.09-4.76-10.37-9.55-15.69-14.24-45.26-39.93-93.37-72.66-143-97.26-30.28-15-64.57-28.9-104.82-42.53-31.42-10.53-62.38-19.6-92.32-28.39-57.93-16.99-112.66-33.05-155.54-55.55l-.49.92c42.96,22.55,97.74,38.62,155.73,55.63,29.94,8.78,60.88,17.85,92.29,28.38,40.21,13.6,74.46,27.48,104.68,42.47,49.55,24.56,97.58,57.22,142.78,97.09,5.31,4.68,10.58,9.47,15.66,14.21,66.23,61.92,118.45,138.94,143.28,211.27,5.5,16.12,9.7,32.16,12.49,47.68,1.72,9.4,3.02,18.89,4.26,28.07,2.99,22.05,6.1,44.86,15.39,68.08,2.54,6.34,5.57,12.63,8.99,18.67,12.2,21.39,30.06,41.78,53.13,60.61,20.22,16.51,44.34,31.6,69.75,43.64,19.76,9.34,41.03,17.82,65.03,25.95,56.76,19.31,115.11,32,169.69,42.85,4.16.82,8.35,1.66,12.58,2.49,72.09,14.25,170.83,33.78,211.66,107.83,15.81,28.89,20.99,63.14,26,96.25,1.43,9.38,2.91,19.1,4.59,28.58,4.2,23.55,9.65,44.08,16.63,62.73,12.29,32.69,30.81,63.56,56.65,94.34,20.99,25.01,46.27,49.43,79.6,76.89,26.72,22.02,54.6,43.05,81.55,63.37,31.31,23.6,60.88,45.9,84.48,66.69h-.04Z"/>
        <path class="cls-1" d="m1348.32,533.72l.67-.81c-21.09-17.28-46.41-35.89-73.2-55.61-31.66-23.29-64.41-47.38-95.76-73.2-71.86-59.2-113.88-112.29-136.27-172.15-7.02-18.82-12.44-39.4-16.6-62.94-1.7-9.62-3.18-19.5-4.6-29.04-4.96-33.3-10.1-67.74-25.96-96.93-17.83-32.55-47.73-57.38-91.42-75.89-38.68-16.39-83.18-25.6-121.86-32.94-4.25-.82-8.48-1.62-12.67-2.4-55.48-10.48-114.4-22.26-171.15-40.64-24.09-7.75-45.45-15.95-65.28-25.06-.11-.05-.21-.1-.32-.14-55.71-25.64-100.57-63.55-123.09-104-3.37-6.07-6.3-12.38-8.74-18.75-8.96-23.36-11.5-46.35-13.95-68.58-1.03-9.29-2.09-18.92-3.61-28.44-2.46-15.75-6.38-32.01-11.65-48.39-12.12-37.4-31.1-75.37-56.4-112.86-24.51-36.34-53.58-70.21-86.41-100.7-5.12-4.77-10.44-9.55-15.81-14.25-45.4-39.68-94.07-72.1-144.65-96.39-30.88-14.81-65.55-28.31-106.03-41.26-34.49-10.93-68.39-20.06-101.16-28.89-55.86-15.04-108.62-29.28-150.95-49.18l-.45.93c42.4,19.94,95.2,34.18,151.11,49.25,32.76,8.83,66.64,17.96,101.11,28.88,40.42,12.94,75.05,26.41,105.88,41.22,50.5,24.23,99.08,56.62,144.42,96.23,5.37,4.68,10.66,9.47,15.79,14.22,66.79,62.05,118.73,139.73,142.52,213.11,5.26,16.31,9.15,32.54,11.62,48.24,1.52,9.51,2.58,19.12,3.6,28.39,2.47,22.29,5.01,45.35,14.02,68.84,2.45,6.42,5.43,12.76,8.8,18.88,12.04,21.61,29.91,42.15,53.15,61.04,20.39,16.58,44.75,31.59,70.43,43.4.11.05.21.1.32.14,19.88,9.11,41.28,17.32,65.4,25.1,56.8,18.39,115.76,30.18,171.27,40.67,4.19.78,8.4,1.6,12.67,2.4,86.54,16.43,174.24,38.32,212.55,108.3,15.77,29.03,20.9,63.38,25.85,96.59,1.42,9.56,2.9,19.43,4.6,29.07,4.18,23.59,9.63,44.24,16.66,63.12,12.32,32.98,30.88,64.07,56.7,95.06,20.95,25.14,47.08,50.5,79.88,77.52,31.38,25.83,64.13,49.93,95.8,73.22,26.77,19.7,52.07,38.3,73.15,55.56h.02Z"/>
        <path class="cls-1" d="m1336.97,545.61l.63-.83c-17.69-13.48-37.99-27.97-59.48-43.31-35.42-25.26-75.57-53.91-112.35-84.19-44.58-36.69-107.24-94.61-136.62-173.51-7.05-19.03-12.5-39.75-16.64-63.31-1.71-9.78-3.2-19.82-4.62-29.52-4.91-33.39-9.98-67.92-25.81-97.27-17.85-32.86-47.83-57.88-91.64-76.5-37.92-16.13-81.3-25.3-122.53-32.81-4.28-.78-8.57-1.56-12.75-2.31-64.96-11.68-118.91-21.93-172.73-38.47-24.47-7.49-46.17-15.5-66.3-24.51-56.39-25.24-101.5-63.21-123.77-104.2-3.31-6.15-6.19-12.52-8.56-18.96-8.65-23.63-10.65-46.86-12.59-69.33-.81-9.4-1.65-19.13-2.95-28.76-2.11-15.9-5.74-32.38-10.76-48.94-22.78-74.61-74.56-153.12-142.06-215.43-5.18-4.78-10.53-9.57-15.95-14.26-45.56-39.44-94.78-71.58-146.29-95.53-31.47-14.62-66.54-27.7-107.22-40-37.69-11.28-74.63-20.34-110.34-29.12-53.67-13.19-104.38-25.64-145.98-43.07l-.4.96c41.67,17.47,92.41,29.93,146.13,43.12,35.71,8.78,72.63,17.85,110.29,29.11,40.63,12.28,75.67,25.36,107.08,39.94,51.44,23.91,100.58,56,146.05,95.37,5.4,4.68,10.75,9.47,15.93,14.23,67.36,62.18,119.03,140.55,141.76,214.98,5.01,16.51,8.61,32.93,10.73,48.78,1.3,9.62,2.14,19.33,2.94,28.71,1.93,22.54,3.93,45.84,12.64,69.6,2.38,6.49,5.27,12.91,8.62,19.1,22.38,41.18,67.66,79.31,124.26,104.65,20.18,9.02,41.9,17.04,66.42,24.55,53.86,16.56,107.87,26.82,172.84,38.5,4.18.75,8.48,1.53,12.75,2.31,82.85,15.08,174.52,37.18,213.44,108.78,15.74,29.18,20.79,63.62,25.69,96.93,1.42,9.71,2.89,19.76,4.62,29.55,4.14,23.63,9.6,44.42,16.69,63.51,12.38,33.26,30.95,64.6,56.74,95.8,21.19,25.62,47.42,51.19,80.18,78.15,36.83,30.31,76.99,58.95,112.41,84.23,21.49,15.34,41.79,29.82,59.46,43.28h.03Z"/>
        <path class="cls-1" d="m1325.63,557.51l.61-.85c-13.14-9.3-27.48-19.18-42.69-29.62-41.59-28.58-88.73-60.97-132.06-96.6-70.81-58.24-114.33-113.8-136.97-174.87-7.12-19.25-12.58-40.1-16.67-63.71-1.73-9.95-3.21-20.13-4.63-30-4.85-33.49-9.85-68.12-25.63-97.61-17.9-33.16-47.94-58.37-91.87-77.13-39.02-16.65-84.18-25.87-123.19-32.68-4.27-.75-8.59-1.49-12.84-2.21l-6.23-1.07c-58.44-9.96-113.65-19.38-168.07-35.24-24.74-7.18-46.65-14.97-67-23.8-57.07-24.83-102.43-62.88-124.45-104.39-3.31-6.29-6.13-12.74-8.36-19.17-8.4-23.87-9.83-47.34-11.23-70.03-.58-9.52-1.18-19.38-2.29-29.14-1.78-16.07-5.11-32.73-9.89-49.5-21.73-75.64-73.23-154.83-141.31-217.31-5.21-4.78-10.62-9.58-16.09-14.26-45.72-39.22-95.51-71.08-147.95-94.66-32.04-14.41-67.51-27.08-108.42-38.73-41.02-11.56-81.12-20.46-119.88-29.06-51.4-11.4-99.96-22.18-140.67-37.27l-.36.97c40.77,15.11,89.36,25.9,140.8,37.31,38.76,8.6,78.82,17.49,119.83,29.04,40.87,11.64,76.28,24.29,108.27,38.69,52.37,23.57,102.05,55.36,147.69,94.51,5.45,4.67,10.85,9.47,16.05,14.24,67.94,62.33,119.34,141.37,141.01,216.81,4.77,16.72,8.08,33.31,9.85,49.33,1.1,9.74,1.7,19.57,2.29,29.09,1.39,22.77,2.82,46.31,11.29,70.32,2.26,6.48,5.09,12.98,8.42,19.31,11.7,22.07,29.6,42.89,53.2,61.89,20.75,16.71,45.55,31.56,71.76,42.97,20.38,8.86,42.33,16.64,67.11,23.85,54.47,15.89,109.72,25.3,168.2,35.27l6.23,1.07c4.25.72,8.57,1.46,12.84,2.21,89.09,15.54,176.7,39.53,214.33,109.26,15.7,29.34,20.7,63.87,25.53,97.27,1.42,9.87,2.91,20.07,4.64,30.03,4.11,23.67,9.58,44.58,16.72,63.89,22.72,61.24,66.34,116.95,137.29,175.31,43.35,35.66,90.52,68.05,132.12,96.65,15.19,10.45,29.55,20.3,42.67,29.61v.02Z"/>
        <path class="cls-1" d="m1314.3,569.41l.57-.87c-6.91-4.55-14.03-9.21-21.56-14.14-46.6-30.51-104.61-68.48-156.08-110.78-70.76-58.18-114.4-114.17-137.31-176.23-7.08-19.2-12.69-40.77-16.7-64.1-1.74-10.1-3.21-20.46-4.64-30.48-4.78-33.59-9.71-68.32-25.48-97.97-9.39-17.52-22.48-33.17-38.94-46.52-14.67-11.89-32.53-22.39-53.16-31.22-39.96-17.12-85.05-26.06-123.85-32.53-4.3-.73-8.65-1.44-12.92-2.12-6.02-.97-12.02-1.93-17.97-2.89-54.81-8.79-106.59-17.08-157.91-31.26-25-6.87-47.13-14.43-67.68-23.09-57.74-24.42-103.37-62.54-125.12-104.58-3.27-6.36-6.02-12.88-8.18-19.38-8.11-24.13-8.99-47.85-9.86-70.79-.36-9.63-.74-19.59-1.63-29.46-1.43-16.24-4.46-33.1-9-50.05-10.43-38.74-28.39-77.95-53.41-116.56-23.95-36.98-54.08-72.45-87.15-102.62-5.27-4.79-10.71-9.6-16.21-14.27-45.91-39.03-96.23-70.59-149.6-93.82-32.62-14.19-68.48-26.45-109.62-37.47-44.48-11.78-87.82-20.36-129.75-28.67-49.05-9.72-95.39-18.89-135.04-31.77l-.32.99c39.71,12.91,86.07,22.09,135.15,31.8,41.91,8.3,85.23,16.88,129.68,28.66,41.1,11.01,76.9,23.25,109.47,37.42,53.26,23.18,103.51,54.7,149.33,93.65,5.5,4.67,10.94,9.47,16.19,14.24,68.54,62.48,119.65,142.18,140.26,218.67,4.51,16.9,7.54,33.69,8.96,49.89.9,9.85,1.27,19.8,1.63,29.41.86,23.01,1.74,46.8,9.9,71.07,2.17,6.55,4.95,13.13,8.25,19.54,11.54,22.29,29.45,43.26,53.21,62.32,20.93,16.78,45.96,31.55,72.42,42.73,20.59,8.69,42.77,16.26,67.81,23.14,51.39,14.18,103.19,22.48,158.02,31.27,5.96.95,11.95,1.92,17.97,2.89,4.27.68,8.62,1.4,12.92,2.12,89.21,14.9,177.03,38.5,215.2,109.74,15.68,29.5,20.62,64.12,25.38,97.62,1.43,10.02,2.9,20.4,4.64,30.5,4.03,23.4,9.66,45.02,16.75,64.28,12.49,33.82,31.09,65.64,56.84,97.24,21.63,26.55,48.06,52.53,80.78,79.43,51.52,42.34,109.54,80.32,156.16,110.85,7.54,4.92,14.66,9.59,21.55,14.14l.06.06Z"/>
        <path class="cls-1" d="m1302.95,581.29l.55-.89c-59.91-36.75-123.2-76.56-180.52-123.63-69.76-57.31-114.78-115.4-137.65-177.6-7.12-19.42-12.75-41.12-16.74-64.48-1.76-10.25-3.22-20.77-4.65-30.94-4.71-33.69-9.6-68.52-25.33-98.31-9.39-17.66-22.52-33.42-38.99-46.87-14.72-12-32.66-22.61-53.33-31.49-41.11-17.66-88.14-26.59-124.51-32.39-4.33-.69-8.71-1.38-13.01-2.04-9.3-1.42-18.66-2.81-27.71-4.17-51.91-7.75-100.95-15.07-149.78-27.8-25.25-6.56-47.62-13.88-68.37-22.39-58.44-24.01-104.3-62.2-125.78-104.78-3.23-6.42-5.91-13.02-8-19.59-7.82-24.4-8.16-48.36-8.49-71.53-.13-9.73-.28-19.8-.98-29.78-1.09-16.42-3.82-33.45-8.13-50.62-9.88-39.17-27.5-78.8-52.42-117.79-23.87-37.36-54.08-73.06-87.4-103.26-5.3-4.8-10.8-9.62-16.35-14.28-46.11-38.83-96.98-70.11-151.24-92.95-33.18-13.97-69.43-25.81-110.83-36.21-48.04-11.93-94.76-20.06-139.93-27.94-46.63-8.11-90.67-15.8-129.08-26.64l-.28,1c38.47,10.85,82.54,18.52,129.19,26.65,45.15,7.86,91.85,15.99,139.86,27.91,41.34,10.38,77.54,22.21,110.66,36.16,54.17,22.81,104.96,54.02,150.98,92.78,5.54,4.67,11.03,9.47,16.33,14.25,69.14,62.64,119.98,143.02,139.5,220.51,4.28,17.11,7,34.08,8.09,50.44.69,9.95.84,20,.97,29.71.34,23.26.67,47.29,8.54,71.83,2.1,6.63,4.81,13.28,8.06,19.75,11.38,22.53,29.28,43.64,53.23,62.75,21.1,16.83,46.38,31.54,73.08,42.51,20.8,8.53,43.21,15.86,68.5,22.43,48.88,12.75,97.93,20.07,149.89,27.83,9.04,1.35,18.39,2.74,27.69,4.16,4.3.66,8.68,1.33,13.01,2.04,85.09,13.57,177.29,37.28,216.09,110.22,15.66,29.64,20.51,64.39,25.22,97.97,1.43,10.18,2.9,20.71,4.65,30.98,3.99,23.44,9.65,45.18,16.79,64.66,12.37,33.64,31.51,66.6,56.91,97.97,21.83,26.99,48.35,53.19,81.08,80.06,57.36,47.11,120.68,86.95,180.63,123.71v.09Z"/>
        <path class="cls-1" d="m1291.61,593.18l.51-.89c-48.29-27.54-119.84-70.16-183.42-122.35-69.73-57.25-114.88-115.78-138.01-178.96-7.16-19.63-12.81-41.45-16.76-64.86-1.77-10.4-3.23-21.07-4.65-31.41-4.66-33.78-9.47-68.71-25.17-98.67-9.39-17.77-22.53-33.66-39.05-47.22-14.78-12.13-32.77-22.81-53.5-31.75-41.95-18.08-88.93-26.75-125.17-32.26-4.36-.66-8.76-1.32-13.09-1.94-12.09-1.74-24.19-3.41-35.92-5.01-49.56-6.82-96.36-13.28-143.14-24.78-25.52-6.25-48.1-13.34-69.06-21.68-58.27-23.25-105.55-62.49-126.46-104.95-3.18-6.5-5.8-13.16-7.8-19.82-7.51-24.67-7.31-48.87-7.11-72.29.09-9.84.16-20.01-.32-30.08-.76-16.58-3.18-33.8-7.24-51.18-4.65-19.84-11.49-40.16-20.27-60.39-8.55-19.7-19.04-39.43-31.14-58.63-23.79-37.74-54.1-73.66-87.65-103.88-5.34-4.81-10.88-9.62-16.49-14.29-46.3-38.66-97.75-69.63-152.9-92.09-33.74-13.74-70.37-25.16-112.02-34.94-51.73-12.01-101.88-19.55-150.4-26.84-44.12-6.63-85.82-12.91-122.85-21.85l-.24,1.01c37.09,8.95,78.8,15.22,122.94,21.86,48.48,7.29,98.63,14.83,150.31,26.83,41.58,9.76,78.18,21.19,111.86,34.89,55.05,22.41,106.39,53.35,152.62,91.92,5.59,4.66,11.11,9.47,16.45,14.26,69.74,62.81,120.32,143.86,138.75,222.37,4.03,17.31,6.45,34.46,7.22,50.98.49,10.05.4,20.21.31,30.03-.2,23.48-.4,47.78,7.16,72.6,2.01,6.7,4.66,13.43,7.86,19.96,11.22,22.75,29.13,44.01,53.26,63.17,21.29,16.9,46.79,31.52,73.74,42.29,21.01,8.37,43.63,15.49,69.2,21.72,46.83,11.52,93.66,17.98,143.25,24.81,11.72,1.61,23.84,3.29,35.91,5.01,4.33.62,8.73,1.27,13.09,1.94,80.25,12.21,177.43,35.82,216.98,110.7,15.62,29.8,20.43,64.65,25.07,98.33,1.43,10.33,2.89,21.02,4.66,31.44,3.97,23.48,9.63,45.36,16.82,65.06,23.2,63.35,68.44,122.02,138.32,179.39,63.65,52.24,135.24,94.89,183.56,122.46l-.02-.03Z"/>
        <path class="cls-1" d="m1280.26,605.08l.49-.92c-49.85-26.4-122.64-68.83-186.3-121.06-69.7-57.2-114.96-116.18-138.35-180.32-7.22-19.85-12.86-41.8-16.81-65.25-1.78-10.56-3.24-21.38-4.66-31.87-4.6-33.88-9.33-68.91-25.04-99.03-9.39-17.91-22.55-33.92-39.1-47.57-14.84-12.26-32.9-23.02-53.68-32.03-43.23-18.7-92.52-27.29-125.83-32.11-4.37-.64-8.8-1.26-13.18-1.85-14.47-1.95-28.96-3.78-42.98-5.55-47.62-6-92.58-11.66-137.66-22.08-25.77-5.94-48.6-12.79-69.76-20.99-58.95-22.84-106.46-62.15-127.13-105.15-3.14-6.56-5.69-13.29-7.62-20.02-7.22-24.93-6.47-49.39-5.76-73.04.31-9.94.62-20.22.34-30.41-.42-16.76-2.55-34.17-6.35-51.74-4.37-20.07-10.97-40.59-19.59-61.04-8.41-19.92-18.76-39.83-30.82-59.21-23.7-38.12-54.1-74.26-87.91-104.52-5.39-4.82-10.97-9.63-16.61-14.3-46.52-38.49-98.52-69.18-154.53-91.23-33.81-13.31-71.9-24.63-113.22-33.68-55.49-12.02-109.2-18.8-161.12-25.38-41.58-5.26-80.86-10.24-116.35-17.42l-.21,1.02c35.55,7.19,74.83,12.17,116.42,17.44,51.91,6.58,105.58,13.37,161.03,25.38,41.26,9.03,79.3,20.34,113.05,33.63,55.92,22.01,107.82,52.65,154.26,91.06,5.64,4.67,11.22,9.46,16.59,14.27,70.36,62.96,120.65,144.69,138,224.22,3.79,17.5,5.92,34.84,6.33,51.53.27,10.17-.04,20.43-.33,30.35-.73,23.73-1.48,48.27,5.79,73.36,1.94,6.78,4.52,13.58,7.69,20.18,11.04,23,28.98,44.39,53.28,63.62,21.45,16.97,47.2,31.51,74.4,42.06,21.22,8.21,44.07,15.09,69.89,21.03,45.12,10.43,90.13,16.11,137.77,22.11,14.02,1.77,28.51,3.6,42.98,5.55,4.38.59,8.81,1.21,13.18,1.85,80.4,11.66,177.81,34.81,217.85,111.18,15.6,29.96,20.34,64.9,24.92,98.69,1.42,10.49,2.9,21.33,4.67,31.9,3.94,23.52,9.61,45.54,16.84,65.43,23.45,64.32,68.82,123.45,138.67,180.76,63.74,52.29,136.59,94.76,186.47,121.18v-.05Z"/>
        <path class="cls-1" d="m1268.92,616.96l.45-.93c-40.2-19.76-118.23-61.59-189.2-119.78-69.67-57.14-115.05-116.56-138.69-181.68-7.27-20.06-12.93-42.13-16.83-65.64-1.78-10.71-3.25-21.69-4.66-32.34-4.53-33.98-9.22-69.12-24.88-99.39-9.39-18.03-22.56-34.16-39.15-47.94-14.9-12.37-33.01-23.23-53.87-32.28-33.48-14.53-73.69-24.7-126.5-31.98-4.43-.61-8.89-1.21-13.28-1.76-16.55-2.09-33.11-3.97-49.13-5.8-46-5.24-89.45-10.2-133.09-19.67-26.03-5.61-49.07-12.25-70.45-20.28-59.62-22.44-107.41-61.82-127.81-105.34-3.08-6.62-5.6-13.43-7.44-20.23-6.93-25.2-5.64-49.9-4.4-73.79.53-10.05,1.07-20.43,1-30.73-.07-16.93-1.91-34.52-5.48-52.29-4.09-20.28-10.45-41.02-18.92-61.69-8.24-20.12-18.5-40.24-30.49-59.79-23.62-38.5-54.1-74.87-88.16-105.16-5.43-4.83-11.06-9.65-16.75-14.3-46.75-38.32-99.29-68.73-156.19-90.36-34.34-13.07-72.84-23.96-114.41-32.41-59.35-11.92-116.65-17.81-172.07-23.51-38.98-4.01-75.8-7.8-109.64-13.41l-.17,1.03c33.87,5.61,70.69,9.41,109.69,13.41,55.4,5.71,112.67,11.61,171.97,23.5,41.52,8.44,79.96,19.33,114.25,32.38,56.78,21.6,109.23,51.94,155.9,90.2,5.67,4.66,11.3,9.46,16.73,14.28,69.93,62.22,121.23,146.73,137.24,226.07,3.54,17.7,5.38,35.23,5.46,52.09.07,10.28-.48,20.64-.99,30.67-1.25,23.97-2.55,48.76,4.43,74.12,1.85,6.85,4.38,13.73,7.49,20.4,10.88,23.22,28.82,44.77,53.32,64.04,21.64,17.03,47.59,31.5,75.08,41.84,21.43,8.04,44.51,14.69,70.6,20.32,43.69,9.48,87.17,14.43,133.19,19.68,16.01,1.82,32.58,3.71,49.11,5.81,4.37.56,8.83,1.15,13.26,1.75,74.27,10.23,177.75,32.95,218.73,111.64,15.58,30.1,20.25,65.16,24.76,99.05,1.42,10.65,2.89,21.64,4.67,32.37,3.91,23.56,9.6,45.71,16.89,65.82,12.53,34.49,31.72,68.2,57.05,100.17,22.11,27.92,49.69,55.49,81.96,81.95,71.05,58.26,149.15,100.13,189.39,119.91l.06.02Z"/>
        <path class="cls-1" d="m1255.86,628.07c.57.27,1.14.53,1.71.78l.43-.95c-39.94-18.21-118.02-57.82-192.09-118.49-68.7-56.3-115.47-117.87-139.06-183.04-7.31-20.28-12.98-42.48-16.86-66.03-1.79-10.85-3.26-22-4.67-32.78-4.46-34.08-9.09-69.32-24.73-99.76-9.38-18.16-22.58-34.41-39.21-48.29-14.96-12.49-33.14-23.44-54.04-32.54-33.59-14.63-75.18-25.04-127.18-31.84-4.44-.58-8.93-1.15-13.36-1.66-18.38-2.17-36.76-4.03-54.55-5.86-44.64-4.55-86.8-8.83-129.25-17.45-26.29-5.3-49.55-11.7-71.14-19.58-60.32-22.03-108.34-61.48-128.48-105.53-3.04-6.68-5.49-13.57-7.24-20.45-6.62-25.48-4.8-50.43-3.03-74.55.75-10.15,1.51-20.64,1.66-31.05.26-17.1-1.28-34.89-4.59-52.85-3.8-20.49-9.95-41.47-18.24-62.34-8.08-20.33-18.24-40.64-30.18-60.37-23.54-38.88-54.1-75.45-88.41-105.8-5.47-4.84-11.15-9.65-16.89-14.31-46.98-38.17-100.09-68.3-157.83-89.52-34.88-12.8-73.77-23.29-115.61-31.16-63.26-11.74-124.25-16.59-183.22-21.25-36.34-2.88-70.67-5.6-102.71-9.79l-.14,1.03c32.06,4.2,66.4,6.92,102.76,9.8,58.95,4.67,119.91,9.51,183.12,21.24,41.78,7.86,80.62,18.32,115.44,31.1,57.65,21.17,110.64,51.23,157.53,89.33,5.72,4.65,11.39,9.46,16.85,14.29,70.54,62.39,121.56,147.59,136.49,227.92,3.3,17.89,4.84,35.61,4.57,52.64-.13,10.39-.9,20.85-1.65,30.98-1.78,24.21-3.63,49.25,3.04,74.88,1.78,6.93,4.24,13.87,7.31,20.62,10.71,23.44,28.67,45.14,53.33,64.47,21.83,17.1,48,31.49,75.74,41.62,21.62,7.89,44.95,14.31,71.28,19.62,42.49,8.63,84.68,12.92,129.34,17.47,17.79,1.81,36.18,3.69,54.53,5.85,4.43.51,8.92,1.08,13.35,1.66,74.41,9.74,178.15,31.94,219.62,112.12,15.56,30.26,20.17,65.42,24.63,99.42,1.42,10.8,2.88,21.95,4.68,32.82,3.89,23.6,9.58,45.89,16.91,66.21,12.58,34.77,31.79,68.72,57.11,100.9,22.29,28.33,49.96,56.13,82.25,82.58,73.13,59.9,150.13,99.29,190.63,117.86l.04.06Z"/>
        <path class="cls-1" d="m1225.9,631.78c6.83,3.14,13.62,6.12,20.34,8.95l.41-.96c-67.97-28.69-139.05-71.41-194.99-117.21-68.67-56.24-115.57-118.28-139.4-184.4-7.37-20.49-13.05-42.83-16.9-66.4-1.8-11-3.27-22.31-4.68-33.25-4.41-34.18-8.98-69.54-24.58-100.12-9.39-18.29-22.61-34.65-39.26-48.65-15.02-12.62-33.25-23.64-54.22-32.82-34.11-14.91-75.93-25.27-127.84-31.7-4.46-.56-8.99-1.08-13.45-1.57-20-2.19-40.03-3.99-59.39-5.72-43.49-3.9-84.56-7.57-125.98-15.41-26.54-4.99-50.05-11.17-71.82-18.87-60.99-21.62-109.27-61.14-129.16-105.72-2.99-6.76-5.37-13.7-7.06-20.65-6.33-25.75-3.95-50.94-1.66-75.29.97-10.24,1.97-20.85,2.32-31.37.6-17.27-.64-35.24-3.7-53.4-3.53-20.7-9.44-41.9-17.56-62.99-7.91-20.54-17.95-41.04-29.86-60.95-23.44-39.26-54.11-76.05-88.66-106.44-5.52-4.84-11.24-9.67-17.01-14.32-47.23-38.04-100.88-67.86-159.48-88.65-35.4-12.55-74.71-22.6-116.82-29.88-67.23-11.48-131.95-15.08-194.53-18.58-33.69-1.87-65.53-3.65-95.62-6.59l-.1,1.04c30.13,2.95,61.96,4.71,95.67,6.59,62.56,3.48,127.23,7.1,194.41,18.57,42.06,7.27,81.3,17.31,116.64,29.85,58.49,20.74,112.05,50.52,159.17,88.47,5.77,4.66,11.49,9.46,16.99,14.29,71.15,62.56,121.91,148.46,135.73,229.76,3.05,18.09,4.29,36,3.7,53.2-.34,10.48-1.34,21.07-2.31,31.3-2.3,24.45-4.7,49.74,1.68,75.65,1.71,7,4.09,14.02,7.12,20.83,10.56,23.68,28.5,45.5,53.35,64.9,21.99,17.15,48.42,31.48,76.4,41.38,21.83,7.72,45.39,13.91,71.98,18.91,41.47,7.85,82.58,11.52,126.09,15.43,19.36,1.74,39.39,3.53,59.37,5.72,4.46.49,8.98,1.02,13.43,1.57,116.88,14.47,189.01,51.3,220.51,112.59,15.54,30.42,20.08,65.68,24.48,99.78,1.41,10.94,2.88,22.26,4.68,33.28,3.86,23.64,9.56,46.05,16.94,66.6,12.64,35.05,31.86,69.26,57.15,101.63,22.46,28.75,50.24,56.74,82.55,83.21,29.53,24.18,62.46,47.06,97.9,68.03,25.12,14.88,51.39,28.62,77.01,40.38Z"/>
        <path class="cls-1" d="m1199.45,637.58c11.95,5.49,23.82,10.53,35.43,15.06l.37-.97c-68.27-26.63-140.4-68.88-197.89-115.92-68.65-56.18-115.66-118.69-139.73-185.77-7.41-20.69-13.1-43.16-16.93-66.79-1.81-11.15-3.26-22.6-4.66-33.7-4.35-34.3-8.85-69.75-24.43-100.49-9.4-18.41-22.62-34.9-39.3-49-15.07-12.73-33.36-23.86-54.39-33.07-34.63-15.18-76.65-25.51-128.5-31.56-4.49-.53-9.03-1.02-13.53-1.47-21.46-2.18-42.96-3.83-63.75-5.45-42.51-3.28-82.66-6.4-123.21-13.52-26.81-4.68-50.52-10.63-72.52-18.16-61.68-21.19-110.22-60.79-129.82-105.92-2.95-6.82-5.26-13.84-6.87-20.86-6.04-26.01-3.12-51.45-.29-76.04,1.19-10.36,2.41-21.06,2.98-31.69.95-17.44,0-35.59-2.83-53.96-3.25-20.92-8.92-42.33-16.88-63.65-7.76-20.74-17.69-41.44-29.52-61.52-23.36-39.62-54.11-76.64-88.91-107.08-5.55-4.85-11.33-9.68-17.15-14.33-47.47-37.9-101.68-67.45-161.12-87.79-35.91-12.29-75.62-21.92-118.02-28.62-71.24-11.13-139.72-13.34-205.96-15.49-31.04-1.01-60.34-1.96-88.43-3.8l-.07,1.03c28.11,1.85,57.43,2.8,88.46,3.81,66.21,2.15,134.67,4.37,205.84,15.48,42.33,6.7,81.98,16.31,117.84,28.57,59.33,20.3,113.43,49.78,160.81,87.61,5.82,4.65,11.58,9.46,17.11,14.3,71.78,62.75,122.24,149.34,134.98,231.62,2.81,18.3,3.75,36.38,2.82,53.75-.56,10.59-1.78,21.28-2.98,31.62-2.84,24.68-5.78,50.21.32,76.4,1.62,7.09,3.95,14.17,6.93,21.04,5.3,12.21,12.75,24.14,22.14,35.41,8.78,10.57,19.29,20.62,31.24,29.91,22.18,17.22,48.83,31.46,77.07,41.16,22.04,7.56,45.83,13.51,72.67,18.22,40.6,7.13,80.77,10.24,123.31,13.53,20.78,1.61,42.27,3.28,63.73,5.44,4.48.45,9.03.95,13.51,1.47,117.14,13.7,189.57,50.69,221.38,113.07,15.5,30.59,20,65.96,24.33,100.15,1.41,11.1,2.87,22.56,4.67,33.73,3.84,23.69,9.54,46.22,16.98,66.97,24.14,67.25,71.26,129.9,140.07,186.22,29.98,24.52,63.23,47.41,98.85,67.98,20.93,12.09,42.55,23.27,63.88,33.06h-.03Z"/>
        <path class="cls-1" d="m1175.31,644.73c16.3,7.47,32.51,14.14,48.24,19.79l.35-.98c-68.77-24.76-141.95-66.54-200.77-114.64-68.65-56.15-115.77-119.1-140.09-187.12-7.45-20.9-13.16-43.52-16.97-67.18-1.81-11.29-3.27-22.91-4.66-34.15-4.28-34.39-8.73-69.96-24.3-100.86-9.39-18.53-22.64-35.14-39.35-49.35-15.13-12.85-33.49-24.08-54.58-33.35-35.11-15.45-77.36-25.71-129.16-31.43-4.53-.51-9.12-.97-13.62-1.38-22.78-2.12-45.62-3.61-67.7-5.04-41.67-2.71-81.03-5.28-120.84-11.75-27.07-4.37-51.02-10.08-73.21-17.47-48.16-16.05-107.73-52.35-130.5-106.11-2.91-6.88-5.15-13.98-6.69-21.09-5.75-26.28-2.28-51.96,1.07-76.8,1.41-10.45,2.87-21.28,3.62-31.99,1.27-17.61.63-35.96-1.94-54.51-11.68-83.49-61.98-171.01-134.58-234.11-5.59-4.86-11.41-9.68-17.29-14.34-47.73-37.78-102.49-67.03-162.78-86.93-36.43-12.03-76.55-21.22-119.21-27.37-75.24-10.67-147.54-11.33-217.46-11.98-28.37-.26-55.18-.51-81.14-1.43l-.03,1.04c25.99.93,52.79,1.18,81.18,1.44,69.89.64,142.14,1.31,217.33,11.98,42.61,6.12,82.66,15.31,119.03,27.32,60.16,19.86,114.82,49.05,162.45,86.75,5.86,4.64,11.66,9.46,17.25,14.31,72.42,62.93,122.58,150.22,134.23,233.46,2.55,18.48,3.22,36.76,1.93,54.29-.76,10.7-2.22,21.49-3.62,31.94-3.36,24.93-6.85,50.7-1.07,77.16,1.55,7.15,3.81,14.32,6.75,21.27,5.22,12.33,12.64,24.35,22.02,35.7,8.8,10.64,19.35,20.75,31.38,30.05,22.35,17.29,49.23,31.43,77.73,40.94,22.25,7.4,46.25,13.14,73.38,17.51,39.85,6.47,79.23,9.03,120.94,11.75,22.08,1.43,44.9,2.93,67.68,5.05,4.49.41,9.07.88,13.6,1.39,115.76,12.75,190.55,50.96,222.27,113.55,15.48,30.75,19.91,66.21,24.2,100.52,1.4,11.24,2.86,22.86,4.67,34.18,3.81,23.73,9.53,46.4,17.01,67.36,24.38,68.2,71.61,131.3,140.4,187.58,30.39,24.85,63.97,47.71,99.79,67.93,17.41,9.83,35.28,18.95,53.06,27.09l.02.05Z"/>
        <path class="cls-1" d="m1153,652.99c19.87,9.11,39.65,16.94,59.2,23.41l.32-.98c-69.44-23-143.68-64.33-203.67-113.35-68.64-56.1-115.88-119.51-140.43-188.49-7.51-21.12-13.22-43.85-16.99-67.57-1.82-11.44-3.27-23.2-4.67-34.58-4.24-34.51-8.6-70.18-24.15-101.25-32.21-64-107.57-102.56-223.98-114.59-4.54-.47-9.15-.91-13.7-1.3-23.99-2.03-48.05-3.31-71.32-4.54-40.96-2.18-79.64-4.23-118.8-10.08-27.32-4.06-51.5-9.54-73.9-16.77-48.68-15.72-108.72-51.91-131.17-106.3-2.86-6.96-5.05-14.13-6.5-21.3-5.46-26.54-1.43-52.48,2.44-77.55,1.63-10.57,3.33-21.49,4.29-32.32,1.62-17.78,1.26-36.31-1.07-55.07-2.68-21.34-7.9-43.19-15.54-64.93-7.43-21.15-17.14-42.25-28.88-62.68-23.18-40.36-54.11-77.83-89.42-108.35-5.64-4.87-11.5-9.7-17.43-14.34-47.98-37.68-103.3-66.62-164.41-86.07-36.94-11.75-77.46-20.52-120.41-26.09-79.25-10.13-155.38-9.08-228.99-8.06-25.73.35-50.04.69-73.84.53v1.03c23.82.15,48.12-.18,73.86-.53,73.59-1.01,149.67-2.07,228.85,8.05,42.9,5.57,83.34,14.33,120.23,26.06,61,19.4,116.21,48.29,164.09,85.89,5.91,4.65,11.77,9.46,17.39,14.32,73.04,63.12,122.95,151.09,133.48,235.31,2.32,18.69,2.68,37.13,1.06,54.84-.96,10.81-2.64,21.71-4.28,32.26-3.88,25.17-7.93,51.19-2.43,77.92,1.46,7.24,3.67,14.47,6.55,21.48,5.14,12.45,12.51,24.55,21.91,35.99,8.79,10.71,19.4,20.86,31.51,30.2,22.53,17.34,49.63,31.42,78.39,40.71,22.46,7.24,46.69,12.74,74.06,16.8,39.21,5.85,77.92,7.91,118.9,10.09,23.26,1.23,47.32,2.51,71.29,4.55,4.54.39,9.14.81,13.68,1.28,116.04,12,191.12,50.38,223.16,114.03,15.46,30.9,19.83,66.49,24.05,100.91,1.4,11.39,2.84,23.17,4.68,34.63,3.78,23.77,9.52,46.57,17.05,67.75,12.79,35.92,32.08,70.85,57.31,103.82,22.95,29.98,51.02,58.6,83.43,85.11,30.79,25.17,64.68,48,100.74,67.88,14.68,8.08,29.39,15.52,44.07,22.24Z"/>
        <path class="cls-1" d="m1131.95,661.95c23.13,10.6,46.18,19.43,68.9,26.33l.3-.99c-70.23-21.36-145.51-62.21-206.56-112.07-68.62-56.07-115.98-119.94-140.77-189.85-7.55-21.33-13.28-44.2-17.02-67.95-1.83-11.58-3.26-23.5-4.65-35.03-4.17-34.61-8.49-70.41-24.02-101.63-17.51-35.03-48.14-62.75-91.07-82.43-1.1-.5-2.2-1.01-3.33-1.49-35.53-15.73-79.44-26.21-130.49-31.15-4.57-.45-9.22-.85-13.79-1.19-25.1-1.93-50.29-2.97-74.65-3.96-40.34-1.65-78.44-3.23-117.05-8.49-27.59-3.75-51.97-8.99-74.59-16.06-49.22-15.4-109.7-51.45-131.85-106.5-2.82-7.02-4.93-14.25-6.31-21.51-5.15-26.81-.6-52.99,3.8-78.31,1.85-10.66,3.77-21.7,4.94-32.64,1.96-17.96,1.9-36.66-.18-55.62-4.71-42.46-19.71-87.02-43.42-128.85-23.08-40.74-54.09-78.43-89.67-108.99-5.68-4.88-11.59-9.72-17.55-14.35-48.25-37.56-104.12-66.24-166.07-85.2-37.45-11.46-78.37-19.82-121.62-24.84-83.22-9.49-163.19-6.57-240.52-3.74-23.12.84-44.96,1.64-66.55,2.11l.02,1.05c21.6-.45,43.43-1.24,66.57-2.09,77.3-2.82,157.21-5.75,240.36,3.74,43.18,4.99,84.04,13.35,121.42,24.79,61.82,18.94,117.58,47.55,165.72,85.03,5.96,4.64,11.85,9.46,17.51,14.33,73.68,63.3,123.3,151.97,132.73,237.15,2.06,18.88,2.13,37.51.19,55.4-1.18,10.92-3.09,21.92-4.94,32.57-4.42,25.41-9,51.68-3.8,78.69,1.39,7.31,3.54,14.62,6.37,21.71,5.06,12.56,12.39,24.76,21.79,36.28,8.81,10.77,19.46,20.99,31.65,30.32,22.71,17.41,50.04,31.41,79.05,40.49,22.67,7.07,47.13,12.34,74.77,16.09,38.67,5.27,76.78,6.85,117.15,8.51,24.35,1,49.55,2.03,74.62,3.97,4.57.35,9.2.75,13.77,1.2,116.31,11.26,191.68,49.8,224.03,114.51,15.44,31.06,19.75,66.76,23.92,101.29,1.39,11.53,2.82,23.46,4.66,35.06,3.76,23.81,9.51,46.75,17.07,68.14,12.84,36.22,32.15,71.39,57.36,104.55,23.1,30.38,51.27,59.23,83.73,85.75,31.17,25.46,65.37,48.27,101.7,67.84,12.1,6.51,24.21,12.56,36.32,18.1l.02-.06Z"/>
        <path class="cls-1" d="m1111.77,671.47c26.05,11.95,52.09,21.57,77.74,28.71l.28-1c-72.17-20.09-146.57-59.45-209.47-110.8-67.66-55.25-116.46-121.36-141.13-191.21-7.6-21.55-13.34-44.53-17.06-68.33-1.84-11.73-3.27-23.79-4.65-35.46-4.11-34.72-8.37-70.62-23.87-102-17.57-35.4-48.37-63.37-91.58-83.17-1.01-.47-2.01-.92-3.03-1.38-35.97-15.96-80.1-26.4-131.15-31.02-4.6-.43-9.28-.78-13.87-1.11-26.11-1.8-52.36-2.57-77.75-3.31-38.06-1.1-77.42-2.26-115.54-6.98-27.83-3.44-52.47-8.45-75.29-15.35C235.63,33.97,174.69-1.96,152.87-57.64c-2.76-7.08-4.82-14.4-6.13-21.72-4.86-27.09.24-53.5,5.17-79.07,2.07-10.77,4.23-21.89,5.6-32.96,2.29-18.13,2.53-37.03.71-56.18-4.14-42.89-18.81-87.88-42.43-130.08-23-41.1-54.08-79.02-89.92-109.63-5.72-4.89-11.68-9.72-17.69-14.36-48.53-37.47-104.96-65.84-167.71-84.35-37.95-11.19-79.27-19.12-122.82-23.56-87.16-8.77-170.95-3.83-251.97.96-20.55,1.21-39.97,2.36-59.31,3.28l.05,1.04c19.35-.92,38.77-2.06,59.31-3.28,80.99-4.78,164.74-9.74,251.82-.96,43.48,4.43,84.73,12.36,122.62,23.53,62.62,18.47,118.94,46.8,167.38,84.16,6.01,4.64,11.94,9.46,17.65,14.33,74.32,63.5,123.66,152.85,131.98,239.01,1.83,19.08,1.59,37.9-.7,55.95-1.38,11.03-3.52,22.15-5.6,32.89-4.94,25.65-10.06,52.17-5.18,79.45,1.3,7.39,3.4,14.77,6.19,21.91,4.96,12.68,12.26,24.98,21.68,36.57,8.82,10.84,19.5,21.1,31.79,30.47,22.88,17.48,50.45,31.4,79.71,40.26,22.88,6.93,47.57,11.96,75.45,15.39,38.2,4.73,77.57,5.88,115.65,7,25.37.74,51.61,1.5,77.69,3.31,4.6.32,9.26.69,13.86,1.11,80.15,7.24,184.25,33.06,224.92,114.99,15.44,31.22,19.68,67.04,23.77,101.67,1.39,11.69,2.82,23.76,4.66,35.51,3.73,23.85,9.49,46.92,17.1,68.52,12.9,36.52,32.21,71.93,57.42,105.28,23.24,30.76,51.53,59.83,84.03,86.38,31.51,25.73,66.04,48.54,102.66,67.79,9.8,5.16,19.63,9.99,29.45,14.49h.04Z"/>
        <path class="cls-1" d="m1092.31,681.4c28.73,13.17,57.52,23.45,85.85,30.65l.26-1c-73.14-18.57-148.56-57.46-212.36-109.51-67.65-55.2-116.56-121.79-141.47-192.57-7.64-21.76-13.39-44.88-17.09-68.73-1.84-11.87-3.26-24.08-4.64-35.91-4.06-34.84-8.26-70.85-23.74-102.39-18.01-36.51-49.92-65.17-94.84-85.17-36.39-16.21-80.74-26.59-131.81-30.87-4.63-.39-9.34-.74-13.96-1.02-27.05-1.66-54.29-2.14-80.62-2.58-37.62-.66-76.52-1.32-114.25-5.54-28.1-3.13-52.95-7.92-75.98-14.66-50.3-14.74-111.69-50.55-133.2-106.87-2.72-7.16-4.71-14.54-5.93-21.93-4.57-27.36,1.07-54.03,6.54-79.82,2.29-10.87,4.69-22.1,6.26-33.28,2.64-18.3,3.17-37.38,1.58-56.73-3.58-43.31-17.91-88.71-41.41-131.32-22.9-41.48-54.08-79.61-90.16-110.26-5.77-4.9-11.77-9.73-17.83-14.38-48.81-37.36-105.79-65.45-169.36-83.49-38.45-10.9-80.18-18.41-124.01-22.31-91.02-7.97-178.63-.85-263.34,6.02-18.03,1.46-35.06,2.85-52.17,4.09l.07,1.04c17.09-1.24,34.14-2.63,52.17-4.09,84.67-6.88,172.23-13.99,263.17-6.02,43.77,3.89,85.43,11.38,123.82,22.28,63.44,17.99,120.3,46.02,169.02,83.32,6.05,4.64,12.04,9.46,17.79,14.34,74.97,63.7,124.01,153.74,131.23,240.87,1.57,19.27,1.04,38.28-1.57,56.51-1.59,11.12-3.96,22.36-6.26,33.21-5.48,25.88-11.13,52.66-6.54,80.2,1.23,7.46,3.26,14.92,5.99,22.13,9.43,24.7,27.92,48.03,53.48,67.47,23.07,17.54,50.86,31.38,80.39,40.03,23.09,6.77,47.99,11.57,76.16,14.7,37.78,4.23,76.7,4.9,114.36,5.55,26.32.45,53.54.93,80.57,2.59,4.62.28,9.31.62,13.94,1.01,80.36,6.74,184.76,32.24,225.81,115.47,15.42,31.38,19.6,67.31,23.64,102.05,1.38,11.83,2.8,24.05,4.65,35.94,3.71,23.91,9.47,47.08,17.14,68.9,12.95,36.8,32.28,72.48,57.46,106.01,23.39,31.16,51.77,60.44,84.33,87.01,31.86,25.99,66.71,48.78,103.61,67.73,7.76,3.98,15.53,7.76,23.31,11.32h-.02Z"/>
        <path class="cls-1" d="m1073.41,691.71c31.18,14.3,62.52,25.12,93.4,32.25l.23-1.01c-74.19-17.11-150.64-55.55-215.24-108.23-67.64-55.16-116.68-122.23-141.81-193.93-7.7-21.97-13.44-45.22-17.13-69.11-1.85-12.01-3.27-24.38-4.64-36.34-4-34.95-8.13-71.08-23.61-102.78-18.04-36.8-50.02-65.68-95.08-85.78-36.79-16.44-81.36-26.77-132.47-30.74-4.66-.36-9.39-.68-14.04-.92-27.93-1.51-56.09-1.66-83.31-1.81-37.24-.22-75.75-.42-113.15-4.15-28.36-2.8-53.44-7.37-76.67-13.96-50.83-14.41-112.71-50.11-133.87-107.06-2.67-7.22-4.6-14.68-5.75-22.14-4.28-27.62,1.91-54.54,7.9-80.58,2.51-10.97,5.13-22.31,6.93-33.58,2.96-18.47,3.8-37.75,2.47-57.29-3.01-43.73-16.99-89.57-40.42-132.53-22.82-41.85-54.08-80.19-90.41-110.89-5.81-4.91-11.84-9.75-17.96-14.39-49.09-37.27-106.63-65.08-171-82.63-38.94-10.61-81.07-17.7-125.21-21.03-94.81-7.08-186.2,2.33-274.57,11.43-14.9,1.53-30.3,3.12-45.16,4.56l.1,1.03c14.86-1.43,30.27-3.03,45.18-4.56,88.33-9.09,179.66-18.49,274.38-11.43,44.07,3.33,86.13,10.41,125.01,21,64.25,17.52,121.67,45.25,170.66,82.46,6.1,4.63,12.13,9.45,17.91,14.35,75.61,63.88,124.38,154.62,130.47,242.71,1.32,19.47.5,38.67-2.46,57.06-1.79,11.23-4.4,22.56-6.92,33.53-6,26.12-12.21,53.15-7.91,80.96,1.16,7.54,3.11,15.06,5.81,22.35,9.27,24.92,27.77,48.41,53.52,67.9,23.23,17.6,51.27,31.37,81.06,39.81,23.3,6.6,48.43,11.17,76.85,13.99,37.43,3.73,75.98,3.94,113.23,4.15,27.21.15,55.34.31,83.26,1.81,4.65.24,9.37.56,14.03.92,80.56,6.25,185.29,31.42,226.7,115.94,15.4,31.54,19.52,67.59,23.51,102.43,1.37,11.96,2.78,24.34,4.63,36.38,3.68,23.95,9.46,47.26,17.17,69.3,13.01,37.1,32.36,73.02,57.52,106.74,23.54,31.55,52.01,61.04,84.63,87.64,32.18,26.24,67.36,49.01,104.54,67.68,5.9,2.96,11.81,5.8,17.73,8.51l-.02-.03Z"/>
        <path class="cls-1" d="m1055.01,702.3c33.45,15.33,67.18,26.61,100.45,33.53l.21-1.02c-75.28-15.68-152.77-53.66-218.14-106.95-67.66-55.14-116.81-122.67-142.17-195.29-7.74-22.19-13.51-45.57-17.15-69.49-1.86-12.16-3.26-24.67-4.62-36.77-3.93-35.05-8.02-71.31-23.47-103.17-17.77-36.49-49.09-65.21-93.11-85.4-.74-.34-1.46-.67-2.2-.99-19.4-8.69-41.31-15.74-65.09-20.98-21.31-4.69-44.21-7.92-68.04-9.61-4.69-.34-9.45-.61-14.13-.83-28.76-1.32-57.79-1.14-85.85-.99-36.93.22-75.1.45-112.19-2.81-28.61-2.49-53.92-6.83-77.37-13.25-51.37-14.08-113.7-49.65-134.53-107.25-2.63-7.28-4.49-14.81-5.57-22.36-3.98-27.89,2.76-55.06,9.27-81.33,2.75-11.08,5.58-22.53,7.59-33.91,3.31-18.64,4.44-38.1,3.36-57.85-2.46-44.15-16.09-90.42-39.42-133.77-22.72-42.23-54.07-80.78-90.66-111.53-5.84-4.92-11.93-9.75-18.1-14.4-49.38-37.18-107.47-64.69-172.66-81.76-39.43-10.33-81.96-16.98-126.4-19.78-98.49-6.1-193.62,5.73-285.61,17.16-12.63,1.57-25.68,3.2-38.34,4.71l.12,1.03c12.66-1.53,25.71-3.14,38.34-4.71,91.95-11.44,187.02-23.25,285.42-17.15,44.37,2.79,86.85,9.44,126.21,19.75,65.04,17.04,123.01,44.48,172.29,81.6,6.15,4.63,12.21,9.45,18.05,14.35,75.13,63.12,124.82,156.84,129.71,244.57,1.09,19.68-.04,39.05-3.33,57.62-2.01,11.35-4.84,22.79-7.58,33.83-6.52,26.37-13.28,53.62-9.28,81.71,1.07,7.61,2.97,15.21,5.61,22.56,9.09,25.14,27.62,48.78,53.53,68.32,23.42,17.66,51.68,31.34,81.72,39.58,23.51,6.44,48.87,10.79,77.55,13.28,37.14,3.25,75.35,3.03,112.29,2.81,28.05-.17,57.06-.35,85.78.98,4.68.22,9.43.5,14.11.84,66.11,4.71,183.6,26.09,227.57,116.41,15.38,31.7,19.45,67.86,23.38,102.82,1.37,12.1,2.77,24.63,4.63,36.81,3.65,23.99,9.44,47.43,17.21,69.68,25.42,72.8,74.69,140.49,142.49,195.75,32.49,26.48,67.99,49.23,105.5,67.65,4.21,2.06,8.42,4.06,12.63,5.99v.02Z"/>
        <path class="cls-1" d="m1036.88,713.11c35.22,16.15,71.45,27.93,107.24,34.62l.19-1.02c-76.44-14.29-154.94-51.83-221.04-105.68-67.65-55.11-116.93-123.11-142.51-196.66-7.78-22.4-13.56-45.9-17.18-69.88-1.85-12.3-3.26-24.95-4.6-37.19-3.89-35.16-7.89-71.54-23.34-103.55-17.83-36.86-49.32-65.84-93.6-86.14-.64-.29-1.27-.59-1.93-.87-37.04-16.65-83.31-27.18-133.8-30.45-4.72-.32-9.5-.55-14.21-.75-29.53-1.13-59.37-.62-88.23-.12-36.66.63-74.55,1.31-111.38-1.51-28.88-2.18-54.4-6.29-78.06-12.54-49.54-13.12-114.69-49.15-135.21-107.45-2.59-7.36-4.4-14.95-5.39-22.57-3.68-28.16,3.59-55.57,10.62-82.08,2.97-11.18,6.04-22.74,8.25-34.23,3.64-18.81,5.08-38.45,4.23-58.4-1.9-44.57-15.19-91.25-38.43-135-22.62-42.59-54.06-81.39-90.91-112.18-5.9-4.92-12.02-9.77-18.24-14.4-49.68-37.1-108.33-64.33-174.29-80.9-39.93-10.04-82.85-16.26-127.62-18.52-102.07-5.04-200.87,9.3-296.44,23.18-10.44,1.52-21.22,3.08-31.73,4.58l.15,1.02c10.51-1.5,21.3-3.06,31.75-4.58,95.52-13.87,194.27-28.2,296.23-23.17,44.68,2.25,87.55,8.47,127.4,18.47,65.84,16.55,124.36,43.71,173.93,80.73,6.2,4.62,12.32,9.45,18.18,14.37,75.77,63.31,125.19,157.73,128.96,246.42.83,19.86-.59,39.44-4.21,58.15-2.21,11.46-5.27,23-8.24,34.16-7.06,26.61-14.36,54.11-10.66,82.49,1,7.69,2.83,15.36,5.43,22.79,8.93,25.38,27.45,49.14,53.55,68.75,23.26,17.47,52.51,31.45,82.38,39.36,23.71,6.28,49.3,10.39,78.23,12.57,36.88,2.8,74.81,2.14,111.48,1.5,28.84-.5,58.68-1.02,88.17.11,4.71.18,9.48.43,14.2.73,66.29,4.31,184.13,25.22,228.45,116.89,15.36,31.86,19.37,68.13,23.24,103.23,1.36,12.24,2.76,24.93,4.61,37.24,3.63,24.03,9.42,47.61,17.23,70.06,25.65,73.72,75.04,141.89,142.83,197.11,35.29,28.75,74.11,52.85,114.28,71.27l.02.03Z"/>
        <path class="cls-1" d="m1019.29,724.17c37.15,17.04,75.54,29.11,113.48,35.44l.18-1.03c-77.62-12.94-157.16-50.01-223.95-104.39-67.66-55.09-117.05-123.55-142.85-198.02-7.82-22.6-13.62-46.25-17.22-70.27-1.86-12.43-3.25-25.24-4.6-37.62-3.82-35.28-7.79-71.77-23.21-103.96-18.11-37.68-50.32-67.17-95.76-87.64-37.41-16.87-83.91-27.35-134.46-30.32-4.74-.28-9.56-.5-14.3-.64-30.25-.94-60.88-.06-90.49.79-36.42,1.05-74.08,2.12-110.69-.23-29.13-1.87-54.89-5.74-78.74-11.83-50.06-12.81-115.68-48.69-135.89-107.64-2.53-7.42-4.29-15.09-5.19-22.79-3.39-28.44,4.43-56.1,11.98-82.84,3.19-11.29,6.48-22.95,8.91-34.55,3.98-18.98,5.71-38.82,5.12-58.96-1.33-45-14.28-92.11-37.43-136.22-22.52-42.95-54.05-81.98-91.17-112.81-5.93-4.93-12.11-9.79-18.36-14.42-49.97-37.02-109.18-63.95-175.95-80.04-40.4-9.74-83.74-15.54-128.81-17.24-105.5-3.92-207.95,13.04-307.01,29.45-8.49,1.4-16.97,2.8-25.38,4.19l.17,1.02c8.43-1.39,16.89-2.79,25.38-4.19,99.01-16.4,201.41-33.37,306.81-29.44,44.98,1.7,88.25,7.51,128.6,17.22,66.64,16.06,125.7,42.93,175.57,79.87,6.23,4.62,12.4,9.45,18.32,14.37,76.41,63.51,125.54,158.64,128.21,248.26.59,20.07-1.13,39.82-5.1,58.71-2.41,11.57-5.71,23.2-8.89,34.47-7.59,26.84-15.43,54.6-12.02,83.24.91,7.76,2.68,15.51,5.25,23,8.77,25.6,27.3,49.52,53.58,69.18,23.45,17.54,52.92,31.44,83.04,39.13,23.92,6.12,49.74,9.99,78.94,11.86,36.67,2.36,74.36,1.28,110.8.24,29.6-.84,60.21-1.74,90.44-.79,4.73.14,9.54.37,14.28.65,66.47,3.91,184.65,24.36,229.34,117.36,15.34,32.03,19.3,68.42,23.11,103.62,1.34,12.4,2.72,25.21,4.59,37.66,3.6,24.08,9.42,47.78,17.26,70.45,13.17,38,32.58,74.65,57.68,108.93,23.94,32.69,52.71,62.82,85.51,89.53,34.29,27.92,71.93,51.27,110.95,69.18v.05Z"/>
        <path class="cls-1" d="m1001.97,735.41c38.97,17.86,79.42,30.19,119.46,36.09l.15-1.03c-78.83-11.61-159.39-48.23-226.84-103.11-67.66-55.06-117.18-124.01-143.21-199.38-7.87-22.82-13.69-46.6-17.25-70.66-1.87-12.57-3.25-25.52-4.58-38.04-3.76-35.4-7.66-72.01-23.08-104.35-17.93-37.58-49.77-67.06-94.6-87.63-.46-.22-.91-.42-1.39-.64-37.78-17.07-84.51-27.51-135.12-30.17-4.77-.25-9.62-.44-14.4-.55-30.95-.73-62.31.52-92.65,1.72-36.22,1.44-73.67,2.94-110.12,1-29.39-1.56-55.37-5.21-79.43-11.15-50.59-12.49-116.69-48.23-136.56-107.83-2.49-7.48-4.18-15.23-5.01-22.99-3.1-28.7,5.26-56.61,13.35-83.6,3.41-11.39,6.94-23.16,9.57-34.87,4.31-19.15,6.33-39.17,5.99-59.51-.78-45.42-13.38-92.95-36.42-137.45-22.44-43.33-54.05-82.56-91.42-113.45-5.97-4.94-12.19-9.79-18.5-14.42-50.28-36.95-110.02-63.59-177.59-79.18-40.89-9.43-84.63-14.81-130.01-15.99-108.82-2.74-214.81,16.93-317.31,35.95-6.45,1.2-12.88,2.38-19.31,3.58l.21,1.03c6.4-1.17,12.83-2.37,19.3-3.58,102.45-19.02,208.38-38.67,317.09-35.93,45.31,1.17,88.97,6.53,129.8,15.96,67.42,15.56,127.05,42.14,177.21,79.01,6.28,4.62,12.49,9.45,18.45,14.38,77.06,63.71,125.9,159.55,127.46,250.12.34,20.26-1.67,40.2-5.97,59.27-2.64,11.66-6.15,23.43-9.55,34.8-8.12,27.08-16.51,55.1-13.39,84,.84,7.85,2.54,15.66,5.05,23.21,8.61,25.83,27.13,49.9,53.6,69.6,23.61,17.59,53.33,31.41,83.7,38.91,24.13,5.95,50.17,9.61,79.63,11.18,36.5,1.95,73.97.45,110.22-1,30.32-1.21,61.67-2.46,92.58-1.72,4.76.12,9.59.29,14.36.54,53.66,2.83,183.52,19.99,230.23,117.84,15.34,32.19,19.22,68.7,22.98,104.02,1.33,12.54,2.72,25.5,4.59,38.09,3.58,24.12,9.41,47.95,17.3,70.84,13.22,38.3,32.63,75.19,57.72,109.67,24.07,33.08,52.93,63.41,85.8,90.17,33.36,27.14,69.92,49.83,107.89,67.24v.02Z"/>
        <path class="cls-1" d="m984.93,746.86c1.4.63,2.79,1.27,4.19,1.9,39.71,17.75,80.41,29.39,120.94,34.61l.14-1.03c-80.08-10.31-161.66-46.47-229.74-101.84-67.67-55.04-117.32-124.45-143.55-200.74-7.91-23.04-13.74-46.93-17.29-71.03-1.87-12.71-3.24-25.81-4.57-38.48-3.71-35.51-7.55-72.23-22.94-104.76-17.99-37.95-49.99-67.69-95.1-88.36-.38-.17-.74-.33-1.12-.5-38.13-17.27-85.08-27.67-135.78-30.04-4.8-.23-9.68-.38-14.48-.45-31.6-.53-63.68,1.1-94.72,2.68-36.05,1.84-73.34,3.74-109.64,2.2-29.66-1.25-55.87-4.66-80.13-10.44-51.11-12.17-117.71-47.77-137.24-108.02-2.44-7.56-4.07-15.36-4.82-23.2-2.8-28.97,6.1-57.12,14.71-84.35,3.64-11.48,7.4-23.37,10.23-35.17,4.66-19.32,6.97-39.52,6.88-60.07-.22-45.82-12.47-93.78-35.42-138.68-22.35-43.7-54.05-83.15-91.67-114.09-6.02-4.95-12.28-9.8-18.64-14.43-50.58-36.87-110.88-63.23-179.24-78.31-41.37-9.13-85.52-14.08-131.2-14.72-112-1.5-221.45,20.94-327.32,42.64-4.52.92-9.02,1.85-13.53,2.77l.21,1.03c4.51-.92,9.02-1.85,13.53-2.77,105.8-21.68,215.2-44.12,327.08-42.61,45.61.63,89.7,5.58,130.99,14.69,68.22,15.06,128.39,41.36,178.85,78.15,6.33,4.61,12.57,9.45,18.58,14.39C.83-358.27,49.38-261.71,49.82-170.2c.09,20.46-2.22,40.59-6.84,59.82-2.84,11.77-6.59,23.64-10.21,35.12C24.13-47.94,15.19-19.68,18.02,9.49c.75,7.92,2.4,15.81,4.87,23.44,8.44,26.05,26.98,50.27,53.62,70.03,23.8,17.66,53.76,31.39,84.36,38.69,24.32,5.79,50.61,9.21,80.33,10.47,36.35,1.53,73.67-.37,109.74-2.2,31.01-1.57,63.07-3.2,94.65-2.68,4.79.08,9.65.23,14.45.46,53.82,2.52,184.05,19.09,231.1,118.32,15.32,32.35,19.16,68.98,22.85,104.41,1.33,12.68,2.7,25.78,4.57,38.51,3.55,24.16,9.39,48.13,17.33,71.23,13.28,38.6,32.71,75.74,57.78,110.4,24.18,33.46,53.15,64,86.1,90.79,32.45,26.39,67.8,48.43,105.12,65.55l.03-.04Z"/>
        <path class="cls-1" d="m968.09,758.41c2.56,1.18,5.14,2.34,7.72,3.46,40.24,17.58,81.58,28.8,122.92,33.38l.12-1.04c-81.34-9.02-163.97-44.73-232.64-100.55-67.68-55.02-117.44-124.9-143.89-202.1-7.97-23.25-13.78-47.27-17.32-71.42-1.88-12.85-3.23-26.09-4.54-38.89-3.65-35.64-7.44-72.48-22.81-105.16-9.4-19.95-22.84-37.86-39.92-53.24-15.53-13.98-34.26-26.04-55.69-35.87-.28-.13-.55-.25-.83-.39-38.48-17.48-85.66-27.83-136.44-29.91-4.83-.19-9.73-.31-14.57-.36-32.23-.3-64.99,1.72-96.67,3.67-35.93,2.21-73.08,4.51-109.26,3.38-29.9-.94-56.35-4.12-80.82-9.73C91.79,141.79,24.71,106.34,5.51,45.43c-2.4-7.62-3.96-15.5-4.63-23.43C-1.63-7.24,7.82-35.63,16.96-63.11c3.86-11.6,7.84-23.58,10.89-35.49,4.98-19.49,7.6-39.89,7.77-60.62.35-46.25-11.56-94.63-34.42-139.9-22.25-44.06-54.03-83.74-91.92-114.73-6.06-4.96-12.37-9.8-18.76-14.44-50.89-36.81-111.76-62.87-180.88-77.47-41.84-8.83-86.39-13.36-132.4-13.46-115.02-.21-227.87,25.05-337,49.49l-8.07,1.8.2,1.01,8.09-1.8c109.08-24.42,221.87-49.67,336.77-49.46,45.94.1,90.42,4.62,132.19,13.43,69,14.56,129.71,40.56,180.5,77.28,6.39,4.62,12.68,9.46,18.72,14.4C-13-348.97,35.26-251.72,34.58-159.26c-.15,20.66-2.76,40.97-7.73,60.37-3.04,11.88-7.03,23.85-10.87,35.42C6.82-35.9-2.68-7.41-.14,22.05c.68,8,2.26,15.96,4.67,23.65,8.28,26.29,26.84,50.64,53.63,70.46,23.96,17.71,54.17,31.36,85.02,38.45,24.53,5.63,51.04,8.82,81.02,9.76,36.24,1.14,73.4-1.16,109.35-3.38,31.67-1.96,64.42-3.97,96.61-3.68,4.84.05,9.72.16,14.54.37,53.96,2.2,184.59,18.2,231.99,118.8,15.3,32.52,19.08,69.28,22.73,104.82,1.32,12.82,2.67,26.06,4.55,38.93,3.54,24.22,9.37,48.31,17.35,71.6,13.34,38.9,32.78,76.28,57.83,111.13,24.3,33.83,53.38,64.6,86.4,91.42,31.69,25.77,66.17,47.25,102.54,63.93v.1Z"/>
        <path class="cls-1" d="m951.46,770.09c3.66,1.68,7.35,3.31,11.04,4.88,40.76,17.39,82.77,28.2,124.88,32.15l.1-1.04c-82.63-7.75-166.27-43-235.53-99.27-67.7-55-117.57-125.36-144.25-203.46-8.01-23.46-13.84-47.62-17.34-71.81-1.89-12.98-3.23-26.37-4.52-39.31-3.61-35.75-7.32-72.73-22.69-105.56-9.4-20.07-22.85-38.1-39.97-53.59-15.65-14.15-34.53-26.35-56.12-36.24-.19-.08-.38-.18-.57-.26-38.82-17.69-86.22-27.98-137.1-29.76-4.86-.17-9.79-.27-14.65-.28-32.82-.08-66.24,2.35-98.57,4.69-35.82,2.6-72.86,5.28-108.95,4.54-30.17-.63-56.84-3.57-81.51-9.02C73.53,155.21,5.94,119.91-12.91,58.33c-2.34-7.68-3.85-15.64-4.45-23.64C-19.58,5.17-9.58-23.47.08-51.17c4.08-11.69,8.3-23.79,11.55-35.82,5.33-19.66,8.24-40.24,8.64-61.18.9-46.67-10.66-95.47-33.43-141.13-22.15-44.43-54.02-84.33-92.16-115.36-6.09-4.95-12.46-9.82-18.9-14.44-51.21-36.74-112.62-62.52-182.54-76.6-42.32-8.53-87.28-12.63-133.61-12.18-117.89,1.12-234.03,29.26-346.34,56.47l-2.94.71.23,1.01,2.94-.71c112.27-27.2,228.34-55.31,346.11-56.44,46.26-.43,91.14,3.65,133.38,12.18,69.78,14.06,131.05,39.76,182.14,76.42,6.42,4.61,12.77,9.46,18.85,14.4C-26.98-339.54,21-241.58,19.21-148.18c-.4,20.85-3.31,41.36-8.6,60.93-3.24,11.99-7.47,24.07-11.53,35.74C-10.62-23.69-20.64,5.04-18.42,34.78c.61,8.07,2.11,16.09,4.49,23.86,8.12,26.51,26.67,51.02,53.67,70.9,24.15,17.77,54.58,31.35,85.7,38.23,24.74,5.47,51.48,8.44,81.72,9.05,36.14.75,73.2-1.93,109.05-4.54,32.3-2.35,65.7-4.76,98.49-4.69,4.85.01,9.78.1,14.62.27,54.11,1.9,185.14,17.32,232.88,119.28,15.3,32.68,19.01,69.55,22.6,105.22,1.31,12.96,2.66,26.34,4.53,39.34,3.52,24.26,9.37,48.48,17.4,71.99,13.38,39.2,32.86,76.83,57.89,111.86,24.43,34.2,53.59,65.17,86.7,92.05,31.01,25.2,64.66,46.18,100.18,62.46l-.03.04Z"/>
        <path class="cls-1" d="m934.98,781.9c45.11,20.69,92.86,33.41,141.05,37.12l.09-1.03c-196.51-15.19-372.39-179.91-400.41-375.01-1.88-13.12-3.22-26.64-4.52-39.73-3.54-35.87-7.21-72.96-22.56-105.97-9.87-21.21-24.23-40.17-42.67-56.29-16.94-14.84-37.45-27.41-60.94-37.39-21.6-9.16-45.64-16.14-71.48-20.68-23.96-4.21-48.96-6.3-74.32-6.18-33.39.15-67.46,2.99-100.38,5.73-63.08,5.24-128.32,10.67-190.92-2.65C42,165.8-31.03,118.37-35.61,47.37c-1.92-29.78,8.62-58.67,18.8-86.61,4.3-11.8,8.75-24,12.21-36.14,8.02-28.1,11.06-57.75,9.04-88.15-1.93-28.99-8.42-58.22-19.3-86.9-10.59-27.91-25.04-54.62-43.01-79.39-17.92-24.74-38.79-46.83-62.05-65.64-44.33-35.89-97.84-62.75-159.02-79.83-55.31-15.45-115.54-22.6-179-21.29-120.61,2.49-239,33.27-353.51,63.06l.27,1c114.44-29.75,232.79-60.53,353.26-63.02,133.74-2.77,253.56,33.06,337.33,100.88C-22.02-314.88,25.25-183.7-5.63-75.68c-3.46,12.1-7.91,24.28-12.19,36.06-10.22,28.04-20.79,57.04-18.87,87.04,2.1,32.54,18.72,62.83,48.1,87.61,25.85,21.81,60.04,38.08,96.24,45.78,62.76,13.36,128.07,7.93,191.23,2.68,32.91-2.73,66.96-5.57,100.3-5.71,45.1-.22,196.29,7.82,248.46,119.94,15.28,32.84,18.93,69.84,22.47,105.62,1.29,13.09,2.63,26.62,4.51,39.76,13.61,94.81,62.34,185.62,137.2,255.74,37.08,34.72,78.83,62.74,123.11,83.04h.04Z"/>
      </g>
    </mask>
  </defs>
  <g class="cls-3">
    <path class="cls-2" d="m0-665h772c93.34,0,169,75.66,169,169v1556H0V-665Z"/>
  </g>
</svg>